<svg data-name="Livello 1" width="212.392" height="212.392" xmlns="http://www.w3.org/2000/svg"><g transform="translate(-59.812 -52.895)"><circle cx="166.008" cy="159.091" r="106.196" fill="teal" fill-rule="evenodd"/><path d="M224.008 174.67a9 9 0 01-9 9h-30a7 7 0 00-4.95 2l-31.05 31.13c-.63.636-1.715.186-1.71-.71v-25.42a7 7 0 00-7-7h-23.29a9 9 0 01-9-9V110.1a9 9 0 019-9h98a9 9 0 019 9z" class="prefix__prefix__UnoptimicedTransforms" fill="#fff" stroke="#000" stroke-width="4.357"/><path d="M132.692 124.778c-.378 0-.742.034-1.103.107.118-.397.238-.794.431-1.153.194-.52.496-.976.796-1.432.251-.494.694-.828 1.02-1.25.34-.41.805-.684 1.173-1.025.361-.354.834-.535 1.211-.785.394-.23.736-.475 1.103-.593.352-.142.661-.272.914-.376.512-.21.804-.336.804-.336l-.823-3.287s-.37.09-1.012.242c-.324.078-.72.174-1.17.288-.459.083-.949.313-1.495.53-.54.24-1.164.407-1.744.79-.583.373-1.257.68-1.85 1.176-.575.51-1.27.953-1.78 1.603-.56.607-1.114 1.245-1.543 1.97-.497.692-.835 1.452-1.19 2.204-.324.75-.582 1.52-.795 2.266a20.512 20.512 0 00-.65 4.133c-.059 1.218-.03 2.23.04 2.964.03.343.073.68.107.914.03.18.041.282.041.282l.041-.008c.738 3.447 3.796 6.035 7.463 6.035a7.634 7.634 0 000-15.266zm18.658 0c-.378 0-.742.034-1.103.107.118-.397.238-.794.431-1.153.194-.52.496-.976.796-1.432.251-.494.693-.828 1.02-1.25.34-.41.805-.684 1.173-1.025.361-.354.834-.535 1.211-.785.394-.23.736-.475 1.103-.593.353-.142.661-.272.914-.376.512-.21.804-.336.804-.336l-.823-3.287s-.37.09-1.013.242c-.323.078-.719.174-1.168.288-.46.083-.95.313-1.496.53-.538.242-1.164.407-1.744.793-.583.372-1.257.679-1.85 1.174-.575.51-1.27.953-1.78 1.602-.56.607-1.114 1.245-1.543 1.97-.497.692-.835 1.452-1.19 2.204a18.79 18.79 0 00-.795 2.266 20.472 20.472 0 00-.65 4.133c-.059 1.218-.03 2.23.04 2.964.03.343.073.68.107.914.033.18.041.282.041.282l.041-.008c.738 3.447 3.797 6.035 7.464 6.035a7.634 7.634 0 000-15.266zm54.713 24.686c-.032-.184-.044-.285-.044-.285l-.045.01c-.736-3.447-3.794-6.034-7.46-6.034a7.632 7.632 0 000 15.262c.378 0 .74-.058 1.102-.11-.117.393-.237.793-.43 1.153-.194.522-.496.975-.796 1.43-.25.494-.694.828-1.02 1.25-.34.41-.805.684-1.173 1.025-.36.356-.834.534-1.21.785-.394.226-.736.475-1.103.594-.352.146-.66.27-.914.376l-.804.333.821 3.289s.37-.088 1.013-.245c.323-.08.72-.176 1.168-.29.46-.084.95-.317 1.496-.528.537-.242 1.163-.404 1.743-.792.583-.37 1.257-.678 1.85-1.174.575-.51 1.27-.953 1.78-1.6.56-.607 1.113-1.245 1.542-1.971.497-.692.835-1.452 1.19-2.203.323-.751.582-1.52.794-2.266.402-1.495.582-2.916.652-4.132.057-1.218.025-2.23-.045-2.963a11.859 11.859 0 00-.107-.914zm-18.653 0c-.033-.184-.045-.285-.045-.285l-.045.01c-.736-3.447-3.794-6.034-7.46-6.034a7.632 7.632 0 000 15.262c.378 0 .741-.058 1.102-.11-.117.393-.238.793-.43 1.153-.194.522-.496.975-.796 1.43-.25.494-.693.828-1.019 1.25-.34.41-.806.684-1.173 1.025-.362.356-.835.534-1.21.785-.395.226-.737.475-1.104.594-.352.146-.66.27-.914.376-.51.208-.802.33-.802.33l.821 3.289s.37-.088 1.012-.245c.324-.08.72-.176 1.17-.29.46-.084.95-.317 1.495-.528.537-.243 1.163-.404 1.743-.792.583-.37 1.256-.678 1.85-1.174.575-.51 1.268-.953 1.78-1.6.56-.608 1.113-1.245 1.542-1.971.497-.692.834-1.452 1.19-2.203.323-.751.582-1.52.794-2.266a20.45 20.45 0 00.651-4.132 21.29 21.29 0 00-.045-2.963c-.025-.342-.073-.68-.108-.91z"/></g></svg>