<?xml version="1.0" encoding="UTF-8" standalone="no"?>
<svg
   viewBox="0 0 3320.99 412.31"
   version="1.1"
   id="svg71"
   sodipodi:docname="logo-usp-texto.svg"
   inkscape:version="1.2.2 (b0a8486541, 2022-12-01)"
   width="3320.99"
   height="412.31"
   xmlns:inkscape="http://www.inkscape.org/namespaces/inkscape"
   xmlns:sodipodi="http://sodipodi.sourceforge.net/DTD/sodipodi-0.dtd"
   xmlns="http://www.w3.org/2000/svg"
   xmlns:svg="http://www.w3.org/2000/svg"
   xmlns:rdf="http://www.w3.org/1999/02/22-rdf-syntax-ns#"
   xmlns:cc="http://creativecommons.org/ns#"
   xmlns:dc="http://purl.org/dc/elements/1.1/">
  <metadata
     id="metadata75">
    <rdf:RDF>
      <cc:Work
         rdf:about="">
        <dc:format>image/svg+xml</dc:format>
        <dc:type
           rdf:resource="http://purl.org/dc/dcmitype/StillImage" />
        <dc:title>logo-usp-texto</dc:title>
      </cc:Work>
    </rdf:RDF>
  </metadata>
  <sodipodi:namedview
     pagecolor="#ffffff"
     bordercolor="#666666"
     borderopacity="1"
     objecttolerance="10"
     gridtolerance="10"
     guidetolerance="10"
     inkscape:pageopacity="0"
     inkscape:pageshadow="2"
     inkscape:window-width="1920"
     inkscape:window-height="1006"
     id="namedview73"
     showgrid="false"
     inkscape:zoom="1.0635704"
     inkscape:cx="3012.9646"
     inkscape:cy="317.79748"
     inkscape:window-x="0"
     inkscape:window-y="0"
     inkscape:window-maximized="1"
     inkscape:current-layer="svg71"
     inkscape:showpageshadow="2"
     inkscape:pagecheckerboard="0"
     inkscape:deskcolor="#d1d1d1" />
  <defs
     id="defs7">
    <style
       id="style2">.a{fill:none;}.b{clip-path:url(#a);}.c{fill:#1b181a;fill-rule:evenodd;}</style>
    <clipPath
       id="a"
       transform="translate(0 0)">
      <rect
         class="a"
         width="984.76001"
         height="399.31"
         id="rect4"
         x="0"
         y="0" />
    </clipPath>
  </defs>
  <title
     id="title9">logo-usp-texto</title>
  <g
     class="b"
     clip-path="url(#a)"
     id="g13"
     style="fill:#f0f1eb;fill-opacity:1"
     transform="translate(6,8)">
    <path
       class="c"
       d="m 319.37,306.16 a 66.66,66.66 0 0 1 -66.53,66.53 v 26.62 A 93.24,93.24 0 0 0 332.68,354 v -47.84 z m 26.62,0 a 66.67,66.67 0 0 0 66.54,66.53 v 26.62 A 93.25,93.25 0 0 1 332.68,354 v -47.84 z m 319.38,-213 A 66.65,66.65 0 0 1 731.9,26.62 V 0 a 93.23,93.23 0 0 0 -79.84,45.27 v 47.88 z m -26.62,0 h 13.31 V 45.31 A 93.26,93.26 0 0 0 572.21,0.05 v 26.61 a 66.66,66.66 0 0 1 66.54,66.53 z m 0,212.94 a 66.73,66.73 0 0 1 -66.54,66.6 v 26.54 A 93.34,93.34 0 0 0 665.37,306.1 Z M 958.13,93.2 h 26.63 A 93.34,93.34 0 0 0 891.59,0.05 V 26.66 A 66.67,66.67 0 0 1 958.13,93.2 Z M 26.61,306.13 H 0 a 93.33,93.33 0 0 0 93.15,93.14 V 372.65 A 66.66,66.66 0 0 1 26.61,306.13 Z M 412.55,0.05 c -48.76,0 -93.26,42.06 -93.18,93.12 H 346 c 0,-37.83 30.91,-66.55 66.54,-66.57 -0.09,-12.66 -0.08,-16.87 0,-26.55 z m 252.82,372.61 v 26.63 h 159.69 v -133.1 h 159.7 V 93.2 H 958.13 V 239.57 H 825.06 V 93.2 H 798.44 V 372.65 Z M 731.9,0 891.59,0.05 V 26.69 L 731.9,26.62 Z m -66.47,247.35 -0.06,58.78 H 638.75 V 258.39 L 483.07,102.47 501.73,83.61 Z M 319.37,152 483.07,315.74 501.73,296.88 346,140.93 V 93.17 H 319.37 Z M 0,0.05 H 319.37 V 26.66 H 186.3 v 278.9 H 159.68 V 26.66 H 26.61 V 306.13 H 0 Z m 93.15,372.6 h 159.72 v 26.64 H 93.15 Z M 412.53,0.06 h 159.7 V 26.69 L 412.53,26.6 Z m 0,372.63 159.7,0.1 v 26.49 h -159.7 v -26.59 0"
       id="path11"
       style="fill:#f0f1eb;fill-opacity:1" />
  </g>
  <path
     d="m 1119.68,76 v 80.34 c 0,14.43 1.09,32.51 28.67,32.51 4.56,0 18.26,-0.19 25.56,-11.51 2.74,-4 4.2,-9.13 4.2,-22.46 V 76 h 27.57 v 82.35 c 0,39.26 -31.22,51.86 -57.88,51.86 -13.15,0 -37.25,-2.92 -49.67,-22.83 -6.39,-10 -6.75,-20.26 -6.75,-32.5 V 76 Z"
     id="path15"
     style="fill:#f0f1eb;fill-opacity:1" />
  <path
     d="m 1229.24,131.87 c 0,-0.36 0,-10.4 -0.55,-16.8 h 25.93 l 0.73,13.88 c 2.56,-4.2 9.86,-16.07 30,-16.07 18.08,0 25.75,11 28.12,17.35 2,5.66 2.56,10.41 2.56,27.57 v 49.85 h -27.63 v -57.33 c 0,-3.84 0,-7.13 -1.46,-10 a 14.09,14.09 0 0 0 -13.15,-7.85 16.82,16.82 0 0 0 -14.06,7.12 c -1.64,2.38 -3.28,6.94 -3.28,14.06 v 54.05 h -27.21 z"
     id="path17"
     style="fill:#f0f1eb;fill-opacity:1" />
  <path
     d="m 1336.24,75.82 h 28.85 v 23.55 h -28.85 z m 0.92,39.44 h 27 v 92.39 h -27 z"
     id="path19"
     style="fill:#f0f1eb;fill-opacity:1" />
  <path
     d="m 1402.89,115.44 20.82,62.63 21.18,-62.63 H 1471 l -33.23,92.21 h -30 L 1374,115.44 Z"
     id="path21"
     style="fill:#f0f1eb;fill-opacity:1" />
  <path
     d="m 1501,168.39 c 0,6 0,24.66 18.81,24.66 6.76,0 13.51,-2.56 16.07,-12.79 h 24.65 a 30.88,30.88 0 0 1 -8.77,20.09 c -6.75,7.12 -18.8,10.77 -32.32,10.77 -7.85,0 -22.82,-1.46 -32.5,-11.5 -8.4,-8.77 -11.87,-21.18 -11.87,-36 0,-15 3.65,-32.87 19.18,-43.65 a 46.26,46.26 0 0 1 25.92,-7.66 c 13.15,0 28.86,5.11 37.26,22.27 6.2,12.6 5.84,26.11 5.47,33.78 z m 34.33,-17 c 0,-4.2 -0.36,-20.63 -16.07,-20.63 -11.87,0 -16.8,9.86 -17.35,20.63 z"
     id="path23"
     style="fill:#f0f1eb;fill-opacity:1" />
  <path
     d="m 1577.46,138.08 c 0,-4.38 -0.73,-17.71 -1.28,-23 h 25.38 l 0.55,17.72 c 3.47,-7.86 9.5,-19 31.41,-17.9 v 24.29 c -27.39,-2.56 -29,11.5 -29,23 v 45.46 h -27 z"
     id="path25"
     style="fill:#f0f1eb;fill-opacity:1" />
  <path
     d="m 1664,181 c 0.37,5.85 4,12.6 15.34,12.6 9.68,0 14.24,-5.48 14.24,-11 0,-4.2 -2.19,-7.49 -12.78,-10.41 l -16.8,-4.57 c -7.48,-2.19 -23.37,-6.75 -23.37,-25.56 0,-17.9 16.43,-28.85 40.35,-28.85 19,0 34.33,8.76 35.06,27.21 h -24.64 c -0.73,-10.23 -8.94,-11 -13.15,-11 -7.3,0 -12.78,3.47 -12.78,9.13 0,6.21 4.57,7.49 12.6,9.68 l 16.62,4.56 c 16.8,4.57 24.65,13.15 24.65,25.75 0,15.89 -13.69,31.77 -42.36,31.77 -11.87,0 -23.19,-2.55 -31.59,-11.32 -6,-6.39 -6.58,-13.69 -6.76,-18.08 z"
     id="path27"
     style="fill:#f0f1eb;fill-opacity:1" />
  <path
     d="m 1732.3,75.82 h 28.86 v 23.55 h -28.86 z m 0.92,39.44 h 27 v 92.39 h -27 z"
     id="path29"
     style="fill:#f0f1eb;fill-opacity:1" />
  <path
     d="m 1841.68,75.82 h 27.21 v 116.86 c 0,5.48 0.37,11.5 0.73,15 h -27.39 l -0.73,-13.33 c -1.83,3.29 -3.65,6.76 -9.31,10.41 -6.76,4.38 -13.88,4.75 -17.9,4.75 -24.65,0 -39.26,-17 -39.26,-45.83 0,-30.5 16.62,-49.49 40.72,-49.49 16.62,0 23.56,9.31 25.93,12.6 z M 1821.05,192 a 19.51,19.51 0 0 0 17.16,-10.41 c 4,-7.67 4.39,-17.16 4.39,-21.73 0,-18.08 -7.86,-27.94 -20.09,-27.94 -18.08,0 -20.09,21.73 -20.09,31 0,15.33 5.12,29.08 18.63,29.08 z"
     id="path31"
     style="fill:#f0f1eb;fill-opacity:1" />
  <path
     d="m 1944.3,207.65 a 74,74 0 0 1 -0.91,-12.6 c -10.22,14.79 -22.46,14.79 -27.57,14.79 -13.33,0 -19.36,-3.83 -23,-7.3 a 28.55,28.55 0 0 1 -8,-20.27 c 0,-7.3 2.55,-20.81 19.53,-28.67 11.33,-5.11 27.58,-5.11 36.52,-5.11 0,-6 -0.18,-9 -1.27,-12.23 -2.38,-6.76 -9.5,-7.67 -12.06,-7.67 a 12.29,12.29 0 0 0 -10.22,5.11 13.88,13.88 0 0 0 -2,8.22 h -26.48 c 0.19,-4.93 0.73,-14.79 10.41,-21.73 8.4,-6 19.17,-7.49 27.94,-7.49 7.67,0 23.74,1.28 32.87,11.87 6.21,7.49 6.39,18.44 6.39,22.64 l 0.18,37.07 a 111.64,111.64 0 0 0 2.19,23.37 z m -33.23,-28.48 c 0,6.21 4.2,13.15 13.15,13.15 a 15.29,15.29 0 0 0 11.5,-5.3 c 4.75,-5.84 5.11,-13 5.11,-22.83 -17.34,-1.46 -29.76,4.02 -29.76,14.98 z"
     id="path33"
     style="fill:#f0f1eb;fill-opacity:1" />
  <path
     d="m 2048.2,75.82 h 27.21 v 116.86 c 0,5.48 0.37,11.5 0.73,15 h -27.39 l -0.73,-13.33 c -1.82,3.29 -3.65,6.76 -9.31,10.41 -6.76,4.38 -13.88,4.75 -17.9,4.75 -24.65,0 -39.26,-17 -39.26,-45.83 0,-30.5 16.62,-49.49 40.72,-49.49 16.62,0 23.56,9.31 25.93,12.6 z M 2027.57,192 a 19.51,19.51 0 0 0 17.16,-10.41 c 4,-7.67 4.39,-17.16 4.39,-21.73 0,-18.08 -7.86,-27.94 -20.09,-27.94 -18.08,0 -20.09,21.73 -20.09,31 0,15.33 5.12,29.08 18.63,29.08 z"
     id="path35"
     style="fill:#f0f1eb;fill-opacity:1" />
  <path
     d="m 2117.23,168.39 c 0,6 0,24.66 18.8,24.66 6.76,0 13.52,-2.56 16.07,-12.79 h 24.65 a 30.8,30.8 0 0 1 -8.76,20.09 c -6.76,7.12 -18.81,10.77 -32.32,10.77 -7.85,0 -22.83,-1.46 -32.5,-11.5 -8.4,-8.77 -11.87,-21.18 -11.87,-36 0,-15 3.65,-32.87 19.17,-43.65 a 46.29,46.29 0 0 1 25.93,-7.66 c 13.15,0 28.85,5.11 37.25,22.27 6.21,12.6 5.84,26.11 5.48,33.78 z m 34.32,-17 c 0,-4.2 -0.36,-20.63 -16.06,-20.63 -11.87,0 -16.8,9.86 -17.35,20.63 z"
     id="path37"
     style="fill:#f0f1eb;fill-opacity:1" />
  <path
     d="m 2302.2,75.82 h 27.21 v 116.86 c 0,5.48 0.36,11.5 0.73,15 h -27.39 l -0.73,-13.33 c -1.83,3.29 -3.65,6.76 -9.31,10.41 -6.76,4.38 -13.88,4.75 -17.9,4.75 -24.65,0 -39.26,-17 -39.26,-45.83 0,-30.5 16.62,-49.49 40.72,-49.49 16.62,0 23.56,9.31 25.93,12.6 z M 2281.57,192 a 19.51,19.51 0 0 0 17.16,-10.41 c 4,-7.67 4.38,-17.16 4.38,-21.73 0,-18.08 -7.85,-27.94 -20.08,-27.94 -18.08,0 -20.09,21.73 -20.09,31 0,15.33 5.11,29.08 18.63,29.08 z"
     id="path39"
     style="fill:#f0f1eb;fill-opacity:1" />
  <path
     d="m 2371.22,168.39 c 0,6 0,24.66 18.81,24.66 6.76,0 13.51,-2.56 16.07,-12.79 h 24.65 a 30.86,30.86 0 0 1 -8.76,20.09 c -6.76,7.12 -18.81,10.77 -32.32,10.77 -7.86,0 -22.83,-1.46 -32.51,-11.5 -8.4,-8.77 -11.87,-21.18 -11.87,-36 0,-15 3.66,-32.87 19.18,-43.65 a 46.26,46.26 0 0 1 25.93,-7.66 c 13.14,0 28.85,5.11 37.25,22.27 6.21,12.6 5.84,26.11 5.48,33.78 z m 34.33,-17 c 0,-4.2 -0.36,-20.63 -16.07,-20.63 -11.87,0 -16.8,9.86 -17.34,20.63 z"
     id="path41"
     style="fill:#f0f1eb;fill-opacity:1" />
  <path
     d="m 2518.58,165.47 c 0,6.21 -0.36,25 23.92,25 15.34,0 25,-7.31 25,-18.44 0,-11.69 -8.22,-13.7 -25,-17.72 -31.4,-7.85 -48.57,-17.16 -48.57,-40 0,-21.73 15.52,-40.9 52.23,-40.9 13.69,0 29.94,3.11 39.8,15.52 7.49,9.5 7.49,20.09 7.49,24.47 h -27.21 c -0.36,-4.56 -1.82,-20.09 -21.36,-20.09 -13.15,0 -21.73,7.13 -21.73,17.9 0,12.23 9.68,14.43 28.67,19.17 22.82,5.48 45.28,11.69 45.28,37.44 0,23.73 -19.72,42.91 -56.24,42.91 -50.58,0 -51,-32.51 -51.13,-45.29 z"
     id="path43"
     style="fill:#f0f1eb;fill-opacity:1" />
  <path
     d="m 2669,207.65 a 74,74 0 0 1 -0.91,-12.6 c -10.22,14.79 -22.46,14.79 -27.57,14.79 -13.33,0 -19.36,-3.83 -23,-7.3 a 28.55,28.55 0 0 1 -8,-20.27 c 0,-7.3 2.55,-20.81 19.53,-28.67 11.33,-5.11 27.58,-5.11 36.53,-5.11 0,-6 -0.19,-9 -1.28,-12.23 -2.38,-6.76 -9.5,-7.67 -12.05,-7.67 a 12.29,12.29 0 0 0 -10.25,5.11 13.88,13.88 0 0 0 -2,8.22 h -26.48 c 0.19,-4.93 0.73,-14.79 10.41,-21.73 8.4,-6 19.17,-7.49 27.94,-7.49 7.67,0 23.74,1.28 32.87,11.87 6.21,7.49 6.39,18.44 6.39,22.64 l 0.18,37.07 a 111.64,111.64 0 0 0 2.19,23.37 z M 2619.56,99.37 c 2,-13.51 10.59,-22.46 21.55,-22.46 a 29.6,29.6 0 0 1 9.13,2 l 10.4,4 a 18.09,18.09 0 0 0 6.21,1.09 c 5.3,0 7.67,-3.83 8.59,-8.4 h 9.31 c -0.73,6.58 -2.19,12.24 -7.31,17 a 17.93,17.93 0 0 1 -13.14,5.3 27.48,27.48 0 0 1 -9.5,-2 L 2647,93 c -2.19,-0.73 -5.84,-1.83 -8.22,-1.83 -3.1,0 -7.3,1.28 -9.68,8.22 z m 16.25,79.8 c 0,6.21 4.2,13.15 13.15,13.15 a 15.29,15.29 0 0 0 11.5,-5.3 c 4.75,-5.84 5.12,-13 5.12,-22.83 -17.35,-1.46 -29.77,4.02 -29.77,14.98 z"
     id="path45"
     style="fill:#f0f1eb;fill-opacity:1" />
  <path
     d="m 2755.41,113.25 c 33.42,0 47.85,22.64 47.85,48.39 0,25.93 -15,49.3 -48.39,49.3 -26.3,0 -47.12,-16.25 -47.12,-48.57 0,-22.28 11.33,-49.12 47.66,-49.12 z m 0.37,78.88 c 11.87,0 19.9,-7.12 19.9,-31.59 0,-12.23 -2.37,-29.21 -20.27,-29.21 -19.72,0 -19.9,22.82 -19.9,31.22 0,20.63 6.94,29.58 20.27,29.58 z"
     id="path47"
     style="fill:#f0f1eb;fill-opacity:1" />
  <path
     d="m 2867.71,76 h 40.72 c 19,0 34.88,1.28 45.84,14.42 6.94,8.4 8,17.9 8,24.65 0,15.34 -6.39,28.31 -16.8,35.06 -9.68,6.21 -23,6.21 -29.95,6.21 h -19.17 v 51.31 h -28.67 z m 27.94,59.34 H 2907 c 9.13,0 26.11,0 26.11,-20.08 0,-17.9 -15.15,-17.9 -23.19,-17.9 h -14.24 z"
     id="path49"
     style="fill:#f0f1eb;fill-opacity:1" />
  <path
     d="m 3024,207.65 a 74,74 0 0 1 -0.91,-12.6 c -10.23,14.79 -22.46,14.79 -27.58,14.79 -13.33,0 -19.35,-3.83 -23,-7.3 a 28.56,28.56 0 0 1 -8,-20.27 c 0,-7.3 2.56,-20.81 19.54,-28.67 11.32,-5.11 27.57,-5.11 36.52,-5.11 0,-6 -0.18,-9 -1.28,-12.23 -2.37,-6.76 -9.49,-7.67 -12.05,-7.67 a 12.29,12.29 0 0 0 -10.24,5.11 13.88,13.88 0 0 0 -2,8.22 h -26.48 c 0.18,-4.93 0.73,-14.79 10.41,-21.73 8.4,-6 19.17,-7.49 27.94,-7.49 7.66,0 23.73,1.28 32.86,11.87 6.21,7.49 6.39,18.44 6.39,22.64 l 0.19,37.07 a 111,111 0 0 0 2.19,23.37 z m -33.23,-28.48 c 0,6.21 4.2,13.15 13.14,13.15 a 15.33,15.33 0 0 0 11.51,-5.3 c 4.75,-5.84 5.11,-13 5.11,-22.83 -17.33,-1.46 -29.74,4.02 -29.74,14.98 z"
     id="path51"
     style="fill:#f0f1eb;fill-opacity:1" />
  <path
     d="m 3093.41,115.44 v 55 c 0,8 0,20.27 14.42,20.27 17.35,0 17.35,-13 17.35,-28.67 v -46.6 h 27.76 v 60.81 c 0.36,19.9 0.54,22.27 0.54,24.65 0.19,2.55 0.37,4.2 0.73,6.75 h -26.29 l -0.91,-12.23 c -2.74,4 -9.68,14.61 -27.21,14.61 -12.42,0 -22.64,-5.66 -27.76,-12.42 -6,-7.49 -6,-20.27 -6,-24.83 v -57.34 z"
     id="path53"
     style="fill:#f0f1eb;fill-opacity:1" />
  <path
     d="m 3175.21,75.63 h 27 v 132 h -27 z"
     id="path55"
     style="fill:#f0f1eb;fill-opacity:1" />
  <path
     d="m 3266.15,113.25 c 33.41,0 47.84,22.64 47.84,48.39 0,25.93 -15,49.3 -48.39,49.3 -26.3,0 -47.11,-16.25 -47.11,-48.57 0,-22.28 11.32,-49.12 47.66,-49.12 z m 0.36,78.88 c 11.87,0 19.91,-7.12 19.91,-31.59 0,-12.23 -2.38,-29.21 -20.27,-29.21 -19.72,0 -19.91,22.82 -19.91,31.22 0,20.63 6.94,29.58 20.27,29.58 z"
     id="path57"
     style="fill:#f0f1eb;fill-opacity:1" />
  <path
     d="m 1091.76,269.05 h 39.48 c 13.46,0 21,1.37 27.84,8.1 4.75,4.59 7.81,11 7.81,19.74 0,18.21 -13.32,22.95 -18.67,24.94 6.43,1.84 22,6.43 22,27.54 a 29.61,29.61 0 0 1 -13.31,25.09 c -7.65,5.05 -16.22,5.05 -24.94,5.05 h -40.24 z m 14.84,46.66 h 21.4 c 5.21,0 23,0 23,-17.44 0,-16.68 -13.92,-16.68 -22.33,-16.68 h -22 z m 0,51.41 h 26.17 c 12.08,0 21.72,-6.43 21.72,-19.13 0,-11 -7.65,-19.12 -21.11,-19.12 h -26.78 z"
     id="path59"
     style="fill:#f0f1eb;fill-opacity:1" />
  <path
     d="m 1190.75,318.31 c 0,-5.2 -0.3,-10.56 -0.76,-15.6 h 14.53 l 0.31,14.84 c 2.75,-10.71 11.93,-14.23 18.36,-15.15 a 46.23,46.23 0 0 1 10,-0.31 v 14.08 a 12,12 0 0 0 -2.76,-0.61 30.7,30.7 0 0 0 -4.13,-0.16 c -17,0 -21,10.1 -21,23.26 v 40.85 h -14.54 z"
     id="path61"
     style="fill:#f0f1eb;fill-opacity:1" />
  <path
     d="m 1293.57,379.51 a 41.39,41.39 0 0 1 -1.38,-11.47 c -6.88,12.69 -17.28,13.92 -23.71,13.92 -17.6,0 -27.08,-9.95 -27.08,-22.65 0,-6.12 2.14,-15.91 13.46,-22.49 8.26,-4.59 20.5,-5.05 26.62,-5.05 3.68,0 6,0.16 10.41,0.46 0,-9.48 0,-13.61 -2.76,-17 -2.9,-3.82 -9.18,-5.05 -13.31,-5.05 -14.53,0 -15.3,9.95 -15.45,13 H 1246 c 0.46,-4 0.92,-9.34 5.35,-14.54 5.82,-6.42 16.68,-8.26 24.79,-8.26 11.17,0 23.1,3.52 27.23,11.32 a 22.64,22.64 0 0 1 2.6,11.78 l -0.61,36.72 a 176.3,176.3 0 0 0 1.23,19.28 z m -9.94,-37.79 c -5.82,0 -27.7,0 -27.7,15.61 0,4.89 3.06,13.31 15.91,13.31 7.35,0 12.86,-2.91 16.38,-8.26 3.21,-5.21 3.36,-9.49 3.67,-20.2 a 63,63 0 0 0 -8.26,-0.46 z"
     id="path63"
     style="fill:#f0f1eb;fill-opacity:1" />
  <path
     d="m 1337.33,356.71 c -0.15,5.82 2.91,13.93 16.83,13.93 6,0 10.4,-1.07 13.46,-4.9 a 12,12 0 0 0 2.45,-7.19 c 0,-7.5 -5.35,-8.87 -16.83,-11.47 -16.06,-3.68 -29.53,-6.89 -29.53,-22.95 0,-14.08 12.24,-23.26 30,-23.26 9.64,0 23.1,2.75 27.69,11.93 2,4.29 2,8 2,11.17 h -14.7 c 0.45,-11.63 -9.64,-12.54 -14.85,-12.54 -2.14,0 -15.6,0 -15.6,11 0,7 6.88,8.72 10.86,9.79 21.27,5 25.86,6.28 30.45,10.56 a 19.06,19.06 0 0 1 5.81,14.23 23.27,23.27 0 0 1 -10.4,19.43 c -6.73,4.13 -14.84,5.2 -22.8,5.2 -15.6,0 -30.14,-6.42 -30,-24.94 z"
     id="path65"
     style="fill:#f0f1eb;fill-opacity:1" />
  <path
     d="m 1401.44,269.35 h 17.29 v 15.76 h -17.29 z m 1.53,33.36 h 14.38 v 76.8 H 1403 Z"
     id="path67"
     style="fill:#f0f1eb;fill-opacity:1" />
  <path
     d="m 1442.9,269.2 h 14.39 v 110.31 h -14.39 z"
     id="path69"
     style="fill:#f0f1eb;fill-opacity:1" />
</svg>
