<svg width="1128.224" height="399.244" xmlns="http://www.w3.org/2000/svg"><path d="M182.116 398.87c-75.431-7.13-141.75-57.01-168.627-126.832-20.26-52.629-17.603-110.85 7.33-160.656 18.446-36.846 48.597-67.949 85.297-87.99C135.57 7.31 176.896-1.86 210.116.318c51.798 3.396 96.733 23.947 132.29 60.5 21.187 21.78 37.638 48.611 46.739 76.228 7.434 22.558 7.36 22.667-15.627 22.667-11.738 0-16.813-.488-17.83-1.713-.782-.942-3.022-6.192-4.976-11.667-14.13-39.567-45.656-74.169-83.909-92.095-23.4-10.965-45.946-15.251-74.522-14.166-21.583.82-36.982 4.275-56.45 12.669-35.458 15.286-68.077 47.821-83.156 82.94-26.38 61.442-12.907 130.937 34.43 177.603 31.04 30.6 69.341 46.429 112.345 46.429 42.535 0 79.244-14.693 109.875-43.98 19.613-18.752 32.89-38.847 41.387-62.64 1.954-5.475 4.194-10.725 4.976-11.667 1.017-1.225 6.092-1.713 17.83-1.713 22.986 0 23.061.108 15.627 22.667-15.828 48.03-52.322 90.8-97.695 114.493-16.038 8.375-35.974 15.3-54.14 18.806-13.856 2.674-42.9 4.353-55.194 3.191zm19.554-61.58c-1.803-1.992-2.22-5.362-2.22-17.92 0-17.207 1.017-19.657 8.165-19.657 8.092 0 23.512-4.39 35.168-10.014 21.54-10.39 35.92-24.733 46.78-46.653 7.129-14.388 9.84-26.33 9.84-43.333 0-17.004-2.711-28.945-9.84-43.333-10.86-21.92-25.24-36.262-46.78-46.653-11.656-5.623-27.076-10.014-35.168-10.014-7.167 0-8.165-2.43-8.165-19.889 0-20.479.292-20.813 16.467-18.802 58.88 7.316 105.209 48.923 119.792 107.584 4.162 16.741 4.162 45.472 0 62.214-5.72 23.01-14.905 41.325-29.736 59.297-21.448 25.99-58.55 45.383-93.303 48.77-7.512.732-9.101.5-11-1.598zm-70.653-95.787c-.495-.496-.9-2.284-.9-3.975 0-3.529 64.056-115.131 67.235-117.142 1.404-.888 2.83-.865 4.311.07 1.217.768 16.807 26.565 34.643 57.327 25.196 43.453 32.361 56.822 32.12 59.93l-.31 4-68.099.345c-37.454.19-68.504-.06-69-.555z" fill="#f0f1eb"/><g aria-label="Center for Artificial Intelligence" style="line-height:1.02" font-size="114.667" letter-spacing="-.16" fill="#f0f1eb" font-weight="900" font-family="Acherus Grotesque"><path d="M536.238 98.054l7.11 7.797q1.26 1.49 1.376 2.293.114.688-1.032 2.064-5.504 5.39-13.646 8.6-8.026 3.211-16.397 3.211-16.856 0-29.126-12.27-12.154-12.154-12.154-29.354t12.154-29.355q12.27-12.27 29.126-12.27 8.37 0 16.397 3.212 8.142 3.21 13.646 8.6 1.146 1.376 1.032 2.178-.115.688-1.376 2.179l-7.11 7.797q-1.49 1.49-2.293 1.49-.917 0-2.064-1.146-7.568-8.141-18.232-8.141-10.32 0-16.283 7.683-6.077 7.682-6.077 17.773 0 9.976 6.077 17.773 6.192 7.683 16.283 7.683 10.664 0 18.232-8.141 1.147-1.147 2.064-1.147.803 0 2.293 1.49zM608.892 96.907h-38.07q1.49 4.472 5.046 7.224 3.669 2.752 8.141 2.752 6.536 0 13.416-2.981 2.293-1.032 2.637-1.032.918 0 1.835 1.261l4.472 5.619q1.147 1.376 1.261 2.178.115.688-.688 1.72-3.784 3.784-10.205 5.963-6.307 2.179-13.072 2.179-12.843 0-22.016-8.83-8.944-8.944-8.944-21.557 0-12.613 8.944-21.557 8.944-8.944 21.443-8.944 13.76 0 21.213 9.517 7.453 9.517 7.453 23.163 0 1.949-.573 2.637t-2.293.688zM582.748 75.12q-9.174 0-11.467 10.664h22.59q-2.638-10.664-11.123-10.664zM623.868 117.432V65.26q0-1.835.573-2.408.688-.688 2.523-.688h5.504q1.261 0 1.949.573.688.574 1.72 2.523l2.293 4.128q4.243-4.701 7.798-6.536 3.554-1.95 8.944-1.95 11.008 0 16.397 6.307 5.504 6.307 5.504 20.755v29.47q0 1.834-.688 2.522-.573.573-2.408.573h-11.352q-1.835 0-2.523-.573-.573-.688-.573-2.523V91.403q0-8.141-1.95-11.467-1.949-3.44-6.88-3.44-5.16 0-7.223 3.44-2.064 3.44-2.064 11.467v26.03q0 1.834-.688 2.522-.574.573-2.408.573h-11.352q-1.835 0-2.523-.573-.573-.688-.573-2.523zM694.228 96.563v-20.64h-2.752q-1.835 0-2.523-.573-.573-.688-.573-2.523v-7.568q0-1.835.573-2.408.688-.688 2.523-.688h2.752v-10.55q0-1.834.573-2.407.688-.688 2.523-.688h11.237q1.835 0 2.408.688.688.573.688 2.408v10.549h14.563q1.835 0 2.408.688.688.573.688 2.408v7.568q0 1.835-.688 2.523-.573.573-2.408.573h-14.563v19.723q0 10.549 8.027 10.549 3.44 0 5.733-1.147 1.491-.802 2.408-.802 1.147 0 1.491 2.637l1.376 8.027q.344 1.605 0 2.408-.23.688-1.605 1.49-4.702 2.982-11.352 2.982-11.238 0-17.43-6.536-6.077-6.65-6.077-18.691zM795.319 96.907h-38.07q1.491 4.472 5.046 7.224 3.67 2.752 8.141 2.752 6.536 0 13.416-2.981 2.293-1.032 2.637-1.032.918 0 1.835 1.261l4.472 5.619q1.147 1.376 1.261 2.178.115.688-.688 1.72-3.784 3.784-10.205 5.963-6.307 2.179-13.072 2.179-12.843 0-22.016-8.83-8.944-8.944-8.944-21.557 0-12.613 8.944-21.557 8.944-8.944 21.443-8.944 13.76 0 21.213 9.517 7.454 9.517 7.454 23.163 0 1.949-.574 2.637-.573.688-2.293.688zM769.175 75.12q-9.174 0-11.467 10.664h22.59Q777.66 75.12 769.174 75.12zM810.295 117.432V65.26q0-1.835.573-2.408.688-.688 2.523-.688h5.504q1.261 0 1.95.573.687.574 1.72 2.523l3.44 6.307q3.21-5.39 7.567-8.027 4.358-2.637 12.728-2.637 1.95 0 2.408.573.574.573.344 2.293l-1.72 11.582q-.344 1.834-1.032 2.408-.573.458-2.293.458-7.912 0-12.04 4.128-4.128 4.014-4.128 10.779v24.31q0 1.834-.688 2.522-.574.573-2.408.573H813.39q-1.835 0-2.523-.573-.573-.688-.573-2.523zM889.554 117.432v-41.28h-5.62q-1.834 0-2.522-.573-.573-.688-.573-2.523v-7.568q0-1.834.573-2.408.688-.688 2.523-.688h5.619v-3.554q0-12.155 6.077-18.806 6.192-6.765 17.43-6.765 6.65 0 11.351 2.981 1.376.803 1.606 1.606.344.688 0 2.293l-1.376 8.027q-.344 2.637-1.491 2.637-.917 0-2.408-.803-2.293-1.146-5.733-1.146-8.027 0-8.027 10.549v2.981h14.563q1.834 0 2.408.688.688.574.688 2.408v7.568q0 1.835-.688 2.523-.574.573-2.408.573h-14.563v41.28q0 1.835-.688 2.523-.573.573-2.408.573H892.65q-1.835 0-2.523-.573-.573-.688-.573-2.523zM929.871 91.403q0-12.613 8.944-21.557 8.944-8.944 21.557-8.944 12.614 0 21.558 8.944 8.944 8.944 8.944 21.557 0 12.499-8.944 21.443t-21.557 8.944q-12.614 0-21.558-8.944-8.944-8.944-8.944-21.443zm21.213-10.664q-3.784 4.243-3.784 10.664 0 6.421 3.784 10.779 4.014 4.357 9.289 4.357 5.389 0 9.173-4.357 3.899-4.243 3.899-10.779 0-6.421-3.9-10.664-3.783-4.243-9.172-4.243-5.39 0-9.289 4.243zM1003.671 117.432V65.26q0-1.835.574-2.408.688-.688 2.522-.688h5.504q1.262 0 1.95.573.688.574 1.72 2.523l3.44 6.307q3.21-5.39 7.568-8.027 4.357-2.637 12.728-2.637 1.95 0 2.408.573.573.573.344 2.293l-1.72 11.582q-.344 1.834-1.032 2.408-.574.458-2.294.458-7.912 0-12.04 4.128-4.128 4.014-4.128 10.779v24.31q0 1.834-.688 2.522-.573.573-2.408.573h-11.352q-1.834 0-2.522-.573-.574-.688-.574-2.523zM467.897 237.081l40.133-75.565q1.605-3.096 2.523-3.096h.344q.917 0 2.522 3.096l40.134 75.565q.573 1.147-.115 2.18-.573.916-1.834.916h-14.678q-1.376 0-2.178-.573-.803-.688-1.835-2.523l-6.077-11.81h-32.222l-6.077 11.81q-1.032 1.835-1.835 2.523-.803.573-2.179.573h-14.677q-1.261 0-1.95-.917-.573-1.032 0-2.179zm42.77-47.357l-9.746 19.723h19.723l-9.747-19.723zM562.337 237.081v-52.173q0-1.835.573-2.408.688-.688 2.523-.688h5.504q1.261 0 1.95.573.687.574 1.72 2.523l3.44 6.307q3.21-5.39 7.567-8.027 4.358-2.637 12.728-2.637 1.95 0 2.408.573.574.573.344 2.293L599.374 195q-.344 1.834-1.032 2.408-.573.458-2.293.458-7.912 0-12.04 4.128-4.128 4.014-4.128 10.779v24.31q0 1.834-.688 2.522-.573.573-2.408.573h-11.352q-1.835 0-2.523-.573-.573-.688-.573-2.523zM612.745 216.212v-20.64h-2.752q-1.835 0-2.523-.573-.573-.688-.573-2.523v-7.568q0-1.835.573-2.408.688-.688 2.523-.688h2.752v-10.55q0-1.834.573-2.407.688-.688 2.523-.688h11.237q1.835 0 2.408.688.688.573.688 2.408v10.549h14.563q1.835 0 2.408.688.688.573.688 2.408v7.568q0 1.835-.688 2.523-.573.573-2.408.573h-14.563v19.723q0 10.549 8.027 10.549 3.44 0 5.734-1.147 1.49-.802 2.408-.802 1.146 0 1.49 2.637l1.376 8.027q.344 1.605 0 2.408-.23.688-1.605 1.49-4.701 2.982-11.352 2.982-11.238 0-17.43-6.536-6.077-6.651-6.077-18.691zM677.716 240.177h-11.352q-1.835 0-2.523-.573-.573-.688-.573-2.523v-52.173q0-1.835.573-2.408.688-.688 2.523-.688h11.352q1.835 0 2.408.688.688.573.688 2.408v52.173q0 1.835-.688 2.523-.573.573-2.408.573zm4.357-75.794q0 4.242-2.981 7.109-2.982 2.867-7.224 2.867-4.243 0-7.11-2.867-2.866-2.867-2.866-7.11 0-4.242 2.866-7.223 2.867-2.982 7.11-2.982 4.242 0 7.224 2.982 2.981 2.98 2.981 7.224zM700.948 237.081v-41.28h-5.619q-1.834 0-2.522-.573-.574-.688-.574-2.523v-7.568q0-1.834.574-2.408.688-.688 2.522-.688h5.619v-3.554q0-12.155 6.077-18.806 6.192-6.765 17.43-6.765 6.65 0 11.352 2.981 1.376.803 1.605 1.606.344.688 0 2.293l-1.376 8.027q-.344 2.637-1.49 2.637-.918 0-2.409-.803-2.293-1.146-5.733-1.146-8.027 0-8.027 10.549v2.981h14.563q1.835 0 2.408.688.688.574.688 2.408v7.568q0 1.835-.688 2.523-.573.573-2.408.573h-14.563v41.28q0 1.835-.688 2.523-.573.573-2.408.573h-11.237q-1.835 0-2.523-.573-.573-.688-.573-2.523zM763.052 240.177H751.7q-1.835 0-2.523-.573-.573-.688-.573-2.523v-52.173q0-1.835.573-2.408.688-.688 2.523-.688h11.352q1.835 0 2.408.688.688.573.688 2.408v52.173q0 1.835-.688 2.523-.573.573-2.408.573zm4.357-75.794q0 4.242-2.98 7.109-2.982 2.867-7.225 2.867-4.243 0-7.11-2.867-2.866-2.867-2.866-7.11 0-4.242 2.867-7.223 2.866-2.982 7.109-2.982t7.224 2.982q2.981 2.98 2.981 7.224zM825.5 222.977l5.734 6.307q1.26 1.49 1.26 1.95.116.458-.687 1.605-8.715 8.6-21.213 8.6-12.384 0-21.443-8.83-8.944-8.944-8.944-21.557 0-12.613 8.944-21.557 8.944-8.944 21.443-8.944 12.498 0 21.213 8.6.803 1.146.688 1.605 0 .459-1.261 1.95l-5.734 6.306q-1.605 1.605-2.522 1.72-.918.115-1.835-1.032-3.67-3.555-10.55-3.555-5.389 0-9.287 4.243-3.784 4.243-3.784 10.664 0 6.421 3.784 10.664 3.784 4.128 9.288 4.128 6.88 0 10.549-3.555.917-1.146 1.835-1.032.917.115 2.522 1.72zM860.314 240.177h-11.352q-1.835 0-2.523-.573-.573-.688-.573-2.523v-52.173q0-1.835.573-2.408.688-.688 2.523-.688h11.352q1.834 0 2.408.688.688.573.688 2.408v52.173q0 1.835-.688 2.523-.574.573-2.408.573zm4.357-75.794q0 4.242-2.981 7.109-2.982 2.867-7.224 2.867-4.243 0-7.11-2.867-2.866-2.867-2.866-7.11 0-4.242 2.866-7.223 2.867-2.982 7.11-2.982 4.242 0 7.224 2.982 2.981 2.98 2.981 7.224zM920.01 237.081l-1.147-2.866q-.23.23-4.242 3.325-1.95 1.376-6.422 2.637-4.357 1.262-9.059 1.262-8.026 0-13.989-4.93-5.963-4.932-5.963-14.334 0-8.83 6.192-13.646 6.192-4.816 14.907-4.816t15.25 2.179q0-5.963-2.063-8.141-2.064-2.294-8.37-2.294-7.798 0-15.94 1.491-1.834 0-2.408-.344-.458-.459-.917-2.523l-1.95-7.682q-.458-1.72-.114-2.408.344-.803 1.835-1.262 1.032-.23 8.485-1.261 7.11-.917 11.81-.917 17.774 0 22.82 7.797 2.637 3.899 3.44 8.256.917 4.357.917 12.04v28.437q0 1.835-.688 2.523-.573.573-2.408.573h-6.536q-1.261 0-1.95-.573-.687-.688-1.49-2.523zm-4.472-14.448v-4.93q-7.224-1.835-10.779-1.835-4.128 0-6.192 1.835-1.95 1.72-1.95 4.472 0 2.408 2.065 4.357 2.064 1.835 6.077 1.835 5.045 0 10.779-5.734zM962.62 240.177H951.27q-1.835 0-2.523-.573-.573-.688-.573-2.523V158.65q0-1.834.573-2.408.688-.688 2.523-.688h11.352q1.834 0 2.408.688.688.574.688 2.408v78.432q0 1.835-.688 2.523-.574.573-2.408.573zM491.747 359.826H479.25q-1.835 0-2.523-.573-.573-.688-.573-2.523v-74.074q0-1.835.573-2.408.688-.688 2.523-.688h12.498q1.835 0 2.408.688.688.573.688 2.408v74.074q0 1.835-.688 2.523-.573.573-2.408.573zM511.883 356.73v-52.173q0-1.835.574-2.408.688-.688 2.522-.688h5.504q1.262 0 1.95.573.688.574 1.72 2.523l2.293 4.128q4.243-4.701 7.798-6.536 3.554-1.95 8.944-1.95 11.008 0 16.397 6.307 5.504 6.307 5.504 20.755v29.47q0 1.834-.688 2.522-.573.573-2.408.573h-11.352q-1.835 0-2.523-.573-.573-.688-.573-2.523v-26.029q0-8.141-1.95-11.467-1.949-3.44-6.88-3.44-5.16 0-7.223 3.44-2.064 3.44-2.064 11.467v26.03q0 1.834-.688 2.522-.574.573-2.408.573h-11.353q-1.834 0-2.522-.573-.574-.688-.574-2.523zM582.244 335.861v-20.64h-2.752q-1.835 0-2.523-.573-.573-.688-.573-2.523v-7.568q0-1.835.573-2.408.688-.688 2.523-.688h2.752v-10.55q0-1.834.573-2.407.688-.688 2.523-.688h11.237q1.835 0 2.408.688.688.573.688 2.408v10.549h14.563q1.835 0 2.408.688.688.573.688 2.408v7.568q0 1.835-.688 2.523-.573.573-2.408.573h-14.563v19.723q0 10.549 8.027 10.549 3.44 0 5.733-1.147 1.49-.802 2.408-.802 1.147 0 1.49 2.637l1.377 8.027q.344 1.605 0 2.408-.23.688-1.605 1.49-4.702 2.982-11.352 2.982-11.238 0-17.43-6.536-6.077-6.651-6.077-18.691zM683.335 336.205h-38.07q1.49 4.472 5.046 7.224 3.669 2.752 8.14 2.752 6.537 0 13.417-2.981 2.293-1.032 2.637-1.032.918 0 1.835 1.261l4.472 5.619q1.147 1.376 1.261 2.178.115.688-.688 1.72-3.784 3.784-10.205 5.963-6.307 2.179-13.072 2.179-12.843 0-22.016-8.83-8.944-8.944-8.944-21.557 0-12.613 8.944-21.557 8.944-8.944 21.443-8.944 13.76 0 21.213 9.517 7.453 9.517 7.453 23.163 0 1.949-.573 2.637t-2.293.688zm-26.144-21.787q-9.174 0-11.467 10.664h22.59q-2.638-10.664-11.123-10.664zM712.759 359.826h-11.352q-1.835 0-2.523-.573-.573-.688-.573-2.523v-78.432q0-1.834.573-2.408.688-.688 2.523-.688h11.352q1.834 0 2.408.688.688.574.688 2.408v78.432q0 1.835-.688 2.523-.574.573-2.408.573zM747.343 359.826H735.99q-1.835 0-2.523-.573-.573-.688-.573-2.523v-78.432q0-1.834.573-2.408.688-.688 2.523-.688h11.352q1.834 0 2.408.688.688.574.688 2.408v78.432q0 1.835-.688 2.523-.574.573-2.408.573zM783.303 359.826H771.95q-1.835 0-2.523-.573-.573-.688-.573-2.523v-52.173q0-1.835.573-2.408.688-.688 2.523-.688h11.352q1.834 0 2.408.688.688.573.688 2.408v52.173q0 1.835-.688 2.523-.574.573-2.408.573zm4.357-75.794q0 4.242-2.981 7.109-2.982 2.867-7.224 2.867-4.243 0-7.11-2.867-2.866-2.867-2.866-7.11 0-4.242 2.866-7.223 2.867-2.982 7.11-2.982 4.242 0 7.224 2.982 2.981 2.98 2.981 7.224zM806.993 380.122l2.294-9.402q.573-2.408 1.49-2.408.803 0 1.606.458 9.861 4.128 16.97 4.128 6.651 0 10.55-3.44 4.013-3.44 4.013-12.842v-3.326q-1.605 2.752-6.421 5.275-4.701 2.523-10.664 2.523-11.238 0-18.806-8.83-7.568-8.944-7.568-21.672 0-12.384 7.568-21.328 7.683-9.058 18.806-9.058 12.155 0 20.296 8.485l2.293-4.128q1.032-1.95 1.72-2.523.688-.573 1.95-.573h5.274q1.835 0 2.408.688.688.573.688 2.408v49.765q0 33.827-29.125 33.827-13.875 0-23.622-4.357-1.49-.688-1.834-1.376-.23-.574.114-2.294zm14.678-38.872q3.899 4.243 9.288 4.243 5.39 0 9.173-4.243 3.899-4.242 3.899-10.664 0-6.536-3.899-10.778-3.784-4.358-9.173-4.358-5.275 0-9.288 4.358-3.784 4.242-3.784 10.778 0 6.307 3.784 10.664zM929.871 336.205h-38.07q1.491 4.472 5.046 7.224 3.67 2.752 8.141 2.752 6.536 0 13.416-2.981 2.294-1.032 2.638-1.032.917 0 1.834 1.261l4.472 5.619q1.147 1.376 1.262 2.178.114.688-.688 1.72-3.784 3.784-10.206 5.963-6.306 2.179-13.072 2.179-12.842 0-22.016-8.83-8.944-8.944-8.944-21.557 0-12.613 8.944-21.557 8.944-8.944 21.443-8.944 13.76 0 21.213 9.517 7.454 9.517 7.454 23.163 0 1.949-.574 2.637-.573.688-2.293.688zm-26.144-21.787q-9.173 0-11.467 10.664h22.59q-2.638-10.664-11.123-10.664zM944.847 356.73v-52.173q0-1.835.573-2.408.688-.688 2.523-.688h5.504q1.261 0 1.95.573.687.574 1.72 2.523l2.293 4.128q4.242-4.701 7.797-6.536 3.555-1.95 8.944-1.95 11.008 0 16.398 6.307 5.504 6.307 5.504 20.755v29.47q0 1.834-.688 2.522-.574.573-2.408.573h-11.353q-1.834 0-2.522-.573-.574-.688-.574-2.523v-26.029q0-8.141-1.949-11.467-1.95-3.44-6.88-3.44-5.16 0-7.224 3.44t-2.064 11.467v26.03q0 1.834-.688 2.522-.573.573-2.408.573h-11.352q-1.835 0-2.523-.573-.573-.688-.573-2.523zM1054.424 342.626l5.733 6.307q1.261 1.49 1.261 1.95.115.458-.688 1.605-8.714 8.6-21.213 8.6-12.384 0-21.443-8.83-8.944-8.944-8.944-21.557 0-12.613 8.944-21.557 8.944-8.944 21.443-8.944t21.213 8.6q.803 1.146.688 1.605 0 .459-1.261 1.95l-5.733 6.306q-1.606 1.605-2.523 1.72-.917.115-1.835-1.032-3.67-3.555-10.55-3.555-5.389 0-9.287 4.243-3.784 4.243-3.784 10.664 0 6.421 3.784 10.664 3.784 4.128 9.288 4.128 6.88 0 10.55-3.555.916-1.146 1.834-1.032.917.115 2.523 1.72zM1125.357 336.205h-38.07q1.491 4.472 5.046 7.224 3.67 2.752 8.141 2.752 6.536 0 13.416-2.981 2.294-1.032 2.638-1.032.917 0 1.834 1.261l4.472 5.619q1.147 1.376 1.262 2.178.114.688-.688 1.72-3.784 3.784-10.206 5.963-6.306 2.179-13.072 2.179-12.843 0-22.016-8.83-8.944-8.944-8.944-21.557 0-12.613 8.944-21.557 8.944-8.944 21.443-8.944 13.76 0 21.213 9.517 7.454 9.517 7.454 23.163 0 1.949-.574 2.637-.573.688-2.293.688zm-26.144-21.787q-9.173 0-11.467 10.664h22.59q-2.638-10.664-11.123-10.664z" style="-inkscape-font-specification:'Acherus Grotesque Heavy'"/></g></svg>