<?xml version="1.0" encoding="UTF-8" standalone="no"?>
<svg
   data-name="Livello 1"
   width="258.363"
   height="166.618"
   version="1.1"
   id="svg17"
   sodipodi:docname="nlport_logo_bege.svg"
   inkscape:version="1.2.2 (b0a8486541, 2022-12-01)"
   xmlns:inkscape="http://www.inkscape.org/namespaces/inkscape"
   xmlns:sodipodi="http://sodipodi.sourceforge.net/DTD/sodipodi-0.dtd"
   xmlns="http://www.w3.org/2000/svg"
   xmlns:svg="http://www.w3.org/2000/svg">
  <sodipodi:namedview
     id="namedview19"
     pagecolor="#ffffff"
     bordercolor="#666666"
     borderopacity="1.0"
     inkscape:showpageshadow="2"
     inkscape:pageopacity="0.0"
     inkscape:pagecheckerboard="0"
     inkscape:deskcolor="#d1d1d1"
     showgrid="false"
     inkscape:zoom="1.7378689"
     inkscape:cx="45.745684"
     inkscape:cy="197.36817"
     inkscape:window-width="1920"
     inkscape:window-height="1006"
     inkscape:window-x="0"
     inkscape:window-y="0"
     inkscape:window-maximized="1"
     inkscape:current-layer="svg17" />
  <defs
     id="defs3">
    <path
       id="prefix__a"
       d="M43.568 85.899h78.97v27.041h-78.97z" />
  </defs>
  <path
     d="M120.178 120.027a9 9 0 01-9 9h-30a7 7 0 00-4.95 2l-31.05 31.13c-.63.636-1.715.186-1.71-.71v-25.42a7 7 0 00-7-7h-23.29a9 9 0 01-9-9v-64.57a9 9 0 019-9h98a9 9 0 019 9zm18.007 0a9 9 0 009 9h30a7 7 0 014.95 2l31.05 31.13c.63.636 1.715.186 1.71-.71v-25.42a7 7 0 017-7h23.29a9 9 0 009-9v-64.57a9 9 0 00-9-9h-98a9 9 0 00-9 9z"
     class="prefix__UnoptimicedTransforms"
     fill="#fff"
     stroke="#000"
     stroke-width="4.357"
     id="path5" />
  <path
     d="M161.523 31.479c-.031.019-.067.037-.101.056-.04.086-.083.174-.125.26.217-.106.438-.21.656-.316zm52.254 23.974l-4.543.387v3.088l-6.539.68.09 3.439 6.453-.17v15.797h-7.136v3.957l17.66-.012.387-3.949h-6.372zm-33.373.297c-6.176 0-9.93 5.648-9.93 14.14 0 8.3 3.102 13.292 9.301 13.292 6.115 0 9.893-5.648 9.893-14.141 0-8.28-3.087-13.291-9.264-13.291zm-.332 3.822c2.506 0 4.034 2.123 4.713 5.69l-9.765 5.052a12.353 12.353 0 01-.045-1.273h.002c0-6.03 1.656-9.469 5.095-9.469zm5.096 9.203v1.104c0 6.041-1.613 9.47-5.053 9.47v-.001c-2.463 0-4.035-2.038-4.714-5.52zm-1.693 23.352l-4.545.387v3.088l-6.54.68.09 3.439 6.456-.168v15.797h-7.139v3.957l17.66-.014.387-3.95h-6.37zm27.619.285c-6.177 0-9.936 5.648-9.936 14.14.01 8.293 3.107 13.303 9.307 13.303v-.011c6.115 0 9.895-5.648 9.895-14.14 0-8.281-3.09-13.292-9.266-13.292zm-.332 3.832c2.505 0 4.036 2.125 4.715 5.692l-9.768 5.052a12.353 12.353 0 01-.045-1.273h.002c0-6.03 1.656-9.47 5.096-9.47zm5.096 9.205v1.104c0 6.041-1.613 9.469-5.053 9.469-2.463 0-4.033-2.038-4.713-5.52zm-62.905 9.367v1.438c.014-.112.018-.23.032-.342-.005-.351-.014-.703-.018-1.055l-.014-.04zm0 18.922v.14l.254.018c-.008-.006-.022-.01-.031-.017-.1-.058-.133-.09-.22-.14zm69.912 4.494l-.105.018c.13.028.26.057.393.078-.097-.031-.205-.062-.287-.096z"
     id="path9" />
  <path
     d="M29.849 69.63c-.378 0-.742.034-1.103.107.118-.397.238-.794.431-1.153.194-.52.496-.976.796-1.432.251-.494.694-.828 1.02-1.25.34-.41.805-.684 1.173-1.025.361-.354.834-.535 1.211-.785.394-.23.736-.475 1.103-.593.352-.142.661-.272.914-.376.512-.209.804-.336.804-.336l-.823-3.287s-.37.091-1.012.242c-.324.078-.72.174-1.17.288-.459.083-.949.313-1.495.531-.54.24-1.164.406-1.744.79-.583.372-1.257.68-1.85 1.175-.575.51-1.27.953-1.781 1.603-.56.607-1.113 1.245-1.542 1.97-.497.692-.835 1.452-1.191 2.204-.323.751-.581 1.52-.794 2.266a20.512 20.512 0 00-.651 4.133c-.058 1.218-.03 2.231.04 2.964.03.343.074.681.108.914.029.181.041.282.041.282l.041-.008c.738 3.447 3.796 6.035 7.463 6.035a7.634 7.634 0 000-15.266zm18.658 0c-.378 0-.742.034-1.103.107.118-.397.238-.794.431-1.153.194-.52.496-.976.796-1.432.251-.494.693-.828 1.02-1.25.34-.41.805-.684 1.173-1.025.361-.354.834-.535 1.211-.785.394-.23.736-.475 1.103-.593.353-.142.661-.272.914-.376.512-.209.804-.336.804-.336l-.823-3.287s-.37.091-1.013.242c-.323.078-.719.174-1.168.288-.46.083-.95.313-1.496.531-.538.241-1.164.406-1.744.792-.583.372-1.257.679-1.85 1.174-.575.51-1.27.953-1.781 1.602-.56.607-1.113 1.245-1.542 1.97-.497.692-.835 1.452-1.191 2.204a18.79 18.79 0 00-.794 2.266 20.472 20.472 0 00-.651 4.133c-.058 1.218-.03 2.231.04 2.964.03.343.074.681.108.914.033.181.041.282.041.282l.041-.008c.738 3.447 3.797 6.035 7.464 6.035a7.634 7.634 0 000-15.266zM103.22 94.316c-.032-.184-.044-.285-.044-.285l-.045.01c-.736-3.447-3.794-6.034-7.46-6.034a7.632 7.632 0 000 15.262c.378 0 .74-.058 1.102-.11-.117.393-.237.793-.43 1.153-.194.522-.496.975-.796 1.43-.251.494-.694.828-1.02 1.25-.34.411-.805.684-1.173 1.025-.361.356-.834.534-1.21.785-.394.226-.736.475-1.103.594-.352.146-.661.27-.914.376l-.804.333.821 3.289s.37-.088 1.013-.245c.323-.08.719-.176 1.168-.29.46-.084.95-.317 1.496-.528.537-.242 1.163-.404 1.743-.792.583-.37 1.257-.678 1.85-1.174.575-.51 1.269-.953 1.78-1.6.56-.607 1.113-1.245 1.542-1.971.497-.692.835-1.452 1.19-2.203.323-.751.582-1.52.794-2.266.402-1.495.582-2.916.652-4.132.057-1.218.025-2.23-.045-2.963a11.859 11.859 0 00-.107-.914zm-18.653 0c-.033-.184-.045-.285-.045-.285l-.045.01c-.736-3.447-3.794-6.034-7.46-6.034a7.632 7.632 0 000 15.262c.378 0 .741-.058 1.102-.11-.117.393-.238.793-.43 1.153-.194.522-.496.975-.796 1.43-.251.494-.693.828-1.019 1.25-.341.411-.806.684-1.173 1.025-.362.356-.835.534-1.211.785-.394.226-.736.475-1.103.594-.352.146-.661.27-.914.376-.51.208-.802.33-.802.33l.821 3.289s.37-.088 1.012-.245c.324-.08.72-.176 1.169-.29.46-.084.95-.317 1.496-.528.537-.243 1.163-.404 1.743-.792.583-.37 1.256-.678 1.85-1.174.575-.51 1.268-.953 1.78-1.6.56-.608 1.113-1.245 1.542-1.971.497-.692.834-1.452 1.19-2.203.323-.751.582-1.52.794-2.266a20.45 20.45 0 00.651-4.132 21.29 21.29 0 00-.045-2.963c-.025-.342-.073-.68-.108-.91z"
     id="path7" />
  <g
     aria-label="NLPortuguês"
     font-weight="700"
     font-size="9.878"
     font-family="Comfortaa"
     fill="#f0f1eb"
     id="g15">
    <path
       style="-inkscape-font-specification:Comfortaa"
       d="M4.879 31.423q-.829 0-1.394-.528-.527-.565-.527-1.431V3.959q0-.866.527-1.394Q4.05 2 4.879 2q.414 0 .829.226.414.188.678.49l16.425 21.85V3.96q0-.866.566-1.394Q23.942 2 24.77 2q.83 0 1.357.565.565.528.565 1.394v25.505q0 .866-.565 1.431-.528.528-1.357.528-.414 0-.866-.15-.414-.19-.64-.528L6.838 8.895v20.569q0 .829-.565 1.394-.528.565-1.394.565zM36.148 31.423q-.83 0-1.394-.565-.528-.565-.528-1.394V3.959q0-.829.566-1.394Q35.357 2 36.148 2q.829 0 1.394.565t.565 1.394v23.546h13.637q.83 0 1.394.565.566.565.566 1.394t-.566 1.394q-.565.565-1.394.565zM60.372 31.423q-.83 0-1.394-.565-.565-.565-.565-1.394V3.959q0-.866.565-1.394Q59.543 2 60.372 2h7.534q2.788 0 4.973 1.243 2.223 1.243 3.428 3.466 1.244 2.223 1.244 5.048 0 2.75-1.244 4.898-1.205 2.147-3.428 3.353-2.185 1.205-4.973 1.205h-5.575v8.25q0 .83-.565 1.395-.528.565-1.394.565zm7.534-13.826q2.562 0 4.22-1.62 1.657-1.658 1.657-4.22 0-2.674-1.657-4.407-1.658-1.733-4.22-1.733h-5.575v11.98zM90.096 31.574q-3.014 0-5.388-1.319-2.373-1.356-3.691-3.73-1.319-2.373-1.319-5.387 0-3.052 1.319-5.425 1.318-2.373 3.691-3.692 2.374-1.356 5.388-1.356 2.976 0 5.312 1.356 2.373 1.319 3.692 3.692 1.356 2.373 1.356 5.425 0 3.014-1.319 5.387-1.318 2.374-3.692 3.73-2.335 1.319-5.35 1.319zm0-3.391q1.921 0 3.428-.904 1.545-.904 2.373-2.487.867-1.62.867-3.654t-.867-3.654q-.828-1.62-2.373-2.524-1.507-.905-3.428-.905-1.922 0-3.466.905-1.507.904-2.374 2.524-.866 1.62-.866 3.654t.866 3.654q.867 1.583 2.374 2.487 1.544.904 3.466.904zM116.279 10.59q1.996 0 3.127.602 1.13.603 1.13 1.507 0 .264-.038.377-.34 1.205-1.507 1.205-.188 0-.565-.075-1.507-.264-2.449-.264-2.712 0-4.37 1.244-1.658 1.243-1.658 3.353v11q0 .904-.49 1.394-.451.49-1.393.49-.904 0-1.394-.452-.49-.49-.49-1.432V12.7q0-.904.49-1.394.49-.49 1.394-.49 1.883 0 1.883 1.884v.716q1.13-1.319 2.788-2.072 1.658-.753 3.542-.753zM133.27 27.655q.677 0 1.13.528.49.527.49 1.356 0 .829-.641 1.356-.603.528-1.583.528h-.678q-1.846 0-3.39-.942-1.507-.98-2.374-2.637-.866-1.658-.866-3.73V14.81h-1.733q-.791 0-1.281-.452-.49-.452-.49-1.13 0-.754.49-1.206.49-.452 1.28-.452h1.734V6.144q0-.829.527-1.356.528-.528 1.357-.528.828 0 1.356.528.527.527.527 1.356v5.425h3.202q.792 0 1.281.452.49.452.49 1.206 0 .678-.49 1.13-.49.452-1.28.452h-3.203v9.305q0 1.507.829 2.524.829 1.017 2.034 1.017zM156.589 10.778q.866 0 1.394.527.527.528.527 1.394v16.802q0 .83-.527 1.394-.528.528-1.394.528-.829 0-1.394-.528-.527-.565-.527-1.394v-.414q-1.206 1.206-2.864 1.884-1.657.64-3.54.64-2.6 0-4.672-1.13-2.072-1.13-3.24-3.278-1.168-2.185-1.168-5.236v-9.268q0-.829.527-1.356.565-.565 1.394-.565.83 0 1.356.565.566.527.566 1.356v9.268q0 3.051 1.62 4.634 1.657 1.544 4.37 1.544 1.582 0 2.863-.64 1.318-.64 2.034-1.733.754-1.093.754-2.449V12.7q0-.866.527-1.394.565-.527 1.394-.527zM174.634 10.665q2.977 0 5.312 1.356 2.374 1.319 3.692 3.692 1.357 2.373 1.357 5.425v8.137q0 2.977-1.319 5.425-1.319 2.45-3.73 3.843-2.373 1.432-5.387 1.432-2.712 0-5.048-1.093-2.336-1.055-3.918-3.051-.415-.528-.415-1.055 0-.791.792-1.356.527-.34 1.054-.34.942 0 1.545.792 1.017 1.318 2.562 1.996 1.544.716 3.503.716 1.846 0 3.353-.904 1.507-.867 2.411-2.6.905-1.695.905-4.068v-1.846q-1.168 2.072-3.09 3.24-1.92 1.168-4.332 1.168-2.788 0-5.01-1.319-2.186-1.356-3.429-3.73-1.205-2.373-1.205-5.387 0-3.052 1.318-5.425 1.319-2.373 3.692-3.692 2.374-1.356 5.387-1.356zm0 17.518q1.922 0 3.429-.904 1.544-.904 2.373-2.487.867-1.62.867-3.654t-.867-3.654q-.829-1.62-2.373-2.524-1.507-.905-3.429-.905-1.92 0-3.466.905-1.506.904-2.373 2.524-.866 1.62-.866 3.654t.866 3.654q.867 1.583 2.373 2.487 1.545.904 3.466.904zM207.712 10.778q.866 0 1.393.527.528.528.528 1.394v16.802q0 .83-.528 1.394-.527.528-1.393.528-.83 0-1.394-.528-.528-.565-.528-1.394v-.414q-1.205 1.206-2.863 1.884-1.658.64-3.541.64-2.6 0-4.672-1.13-2.072-1.13-3.24-3.278-1.168-2.185-1.168-5.236v-9.268q0-.829.528-1.356.565-.565 1.394-.565t1.356.565q.565.527.565 1.356v9.268q0 3.051 1.62 4.634 1.658 1.544 4.37 1.544 1.582 0 2.863-.64 1.319-.64 2.035-1.733.753-1.093.753-2.449V12.7q0-.866.528-1.394.565-.527 1.394-.527zM234.912 20.799q0 .716-.49 1.206-.49.452-1.243.452h-14.316q.414 2.637 2.373 4.257 1.997 1.62 4.86 1.62 1.13 0 2.336-.415 1.243-.414 2.034-1.017.528-.414 1.243-.414.716 0 1.13.376.679.565.679 1.281 0 .678-.603 1.13-1.28 1.018-3.202 1.658-1.884.64-3.617.64-3.09 0-5.538-1.318-2.449-1.356-3.843-3.73-1.356-2.373-1.356-5.387 0-3.014 1.281-5.387 1.319-2.411 3.617-3.73 2.335-1.356 5.274-1.356 2.9 0 5.01 1.28 2.11 1.282 3.24 3.58 1.13 2.298 1.13 5.274zm-9.381-6.894q-2.75 0-4.483 1.507-1.695 1.507-2.148 4.03h12.546q-.34-2.523-1.884-4.03-1.545-1.507-4.031-1.507zm-4.559-5.651q-.828 0-1.393-.415-.528-.452-.528-1.13 0-.98.904-1.657l4.22-2.75q.49-.302.98-.302.564 0 1.016.301l4.182 2.75q.904.679.904 1.658 0 .678-.527 1.13-.528.415-1.356.415-.678 0-1.244-.415l-2.976-2.11-2.976 2.11q-.527.415-1.206.415zM247.306 31.574q-2.562 0-4.822-.792-2.26-.79-3.541-2.072-.49-.49-.49-1.168 0-.904.753-1.469.716-.527 1.319-.527.753 0 1.431.678.716.791 2.148 1.394 1.431.565 3.051.565 2.148 0 3.316-.716 1.205-.716 1.205-1.921 0-1.168-1.168-1.922-1.168-.79-3.955-1.318-7.234-1.394-7.234-5.952 0-1.846 1.093-3.127 1.092-1.281 2.863-1.922 1.77-.64 3.767-.64 2.45 0 4.37.791 1.96.791 3.09 2.185.49.603.49 1.206 0 .64-.641 1.167-.414.302-1.055.302-.98 0-1.77-.716-.942-.866-1.997-1.206-1.055-.376-2.562-.376-1.733 0-2.863.603-1.093.565-1.093 1.62 0 .753.377 1.28.377.49 1.432.942 1.055.415 3.051.829 4.107.829 5.802 2.298 1.733 1.47 1.733 3.805 0 1.733-.942 3.165-.942 1.394-2.788 2.222-1.808.791-4.37.791z"
       id="path13" />
  </g>
</svg>
