<?xml version="1.0" encoding="UTF-8" standalone="no"?>
<svg
   xmlns:osb="http://www.openswatchbook.org/uri/2009/osb"
   xmlns:dc="http://purl.org/dc/elements/1.1/"
   xmlns:cc="http://creativecommons.org/ns#"
   xmlns:rdf="http://www.w3.org/1999/02/22-rdf-syntax-ns#"
   xmlns:svg="http://www.w3.org/2000/svg"
   xmlns="http://www.w3.org/2000/svg"
   xmlns:sodipodi="http://sodipodi.sourceforge.net/DTD/sodipodi-0.dtd"
   xmlns:inkscape="http://www.inkscape.org/namespaces/inkscape"
   data-name="Livello 1"
   id="Livello_1"
   viewBox="0 0 254.36341 162.61787"
   version="1.1"
   sodipodi:docname="final_logo_com_texto_em_branco.svg"
   width="254.3634"
   height="162.61787"
   inkscape:export-filename="/home/barzilay/Downloads/imanges_nlp/1904663-bubble-chat-comment-communication-message-talk-text_122514.png"
   inkscape:export-xdpi="95.415833"
   inkscape:export-ydpi="95.415833"
   inkscape:version="1.0.2 (e86c870879, 2021-01-15)">
  <metadata
     id="metadata889">
    <rdf:RDF>
      <cc:Work
         rdf:about="">
        <dc:format>image/svg+xml</dc:format>
        <dc:type
           rdf:resource="http://purl.org/dc/dcmitype/StillImage" />
        <dc:title></dc:title>
      </cc:Work>
    </rdf:RDF>
  </metadata>
  <defs
     id="defs887">
    <inkscape:path-effect
       effect="mirror_symmetry"
       start_point="39.66,-219.28006"
       end_point="39.66,-103.28219"
       center_point="39.66,-161.28113"
       id="path-effect1710"
       is_visible="true"
       lpeversion="1"
       mode="free"
       discard_orig_path="false"
       fuse_paths="false"
       oposite_fuse="false"
       split_items="false" />
    <inkscape:path-effect
       split_items="false"
       oposite_fuse="false"
       fuse_paths="false"
       discard_orig_path="false"
       mode="free"
       lpeversion="1"
       is_visible="true"
       id="path-effect3923"
       center_point="88.7,46.954473"
       end_point="88.7,64.388946"
       start_point="88.7,29.52"
       effect="mirror_symmetry" />
    <inkscape:path-effect
       split_items="false"
       oposite_fuse="false"
       fuse_paths="false"
       discard_orig_path="false"
       mode="free"
       lpeversion="1"
       is_visible="true"
       id="path-effect3854"
       center_point="60.132765,148.5"
       end_point="77.07,148.5"
       start_point="43.195531,148.5"
       effect="mirror_symmetry" />
    <linearGradient
       osb:paint="solid"
       id="linearGradient3737">
      <stop
         id="stop3735"
         offset="0"
         style="stop-color:#ff0000;stop-opacity:1;" />
    </linearGradient>
    <rect
       id="rect1720"
       height="27.040514"
       width="78.969566"
       y="85.89901"
       x="43.568115" />
    <rect
       id="rect1714"
       height="11.225589"
       width="80.036476"
       y="101.01549"
       x="46.564259" />
    <rect
       id="rect1614"
       height="25.689589"
       width="16.014301"
       y="83.068932"
       x="70.815781" />
    <rect
       id="rect1598"
       height="14.449481"
       width="36.856091"
       y="85.903023"
       x="88.59166" />
    <rect
       id="rect1494"
       height="14.064031"
       width="21.629326"
       y="119.22325"
       x="43.265606" />
    <rect
       id="rect1480"
       height="14.452815"
       width="21.463669"
       y="118.86938"
       x="42.357265" />
    <clipPath
       id="clipPath1708"
       clipPathUnits="userSpaceOnUse">
      <rect
         transform="skewX(0.03037613)"
         y="73.673744"
         x="140.88275"
         height="16.000887"
         width="13.151941"
         id="rect1710"
         style="fill:none;stroke:#ff0000;stroke-width:0.13;stroke-miterlimit:4;stroke-dasharray:none" />
    </clipPath>
    <rect
       x="43.265606"
       y="119.22325"
       width="21.629326"
       height="14.064031"
       id="rect1494-6" />
    <rect
       x="43.265606"
       y="119.22325"
       width="21.629326"
       height="14.064031"
       id="rect3796" />
    <clipPath
       clipPathUnits="userSpaceOnUse"
       id="clipPath1708-2">
      <rect
         style="fill:none;stroke:#ff0000;stroke-width:0.13;stroke-miterlimit:4;stroke-dasharray:none"
         id="rect1710-6"
         width="13.151941"
         height="16.000887"
         x="140.88275"
         y="73.673744"
         transform="skewX(0.03037613)" />
    </clipPath>
    <rect
       x="43.568115"
       y="85.89901"
       width="78.969566"
       height="27.040514"
       id="rect1720-7" />
    <rect
       x="43.568115"
       y="85.89901"
       width="78.969566"
       height="27.040514"
       id="rect3801" />
    <rect
       x="43.265606"
       y="119.22325"
       width="21.629326"
       height="14.064031"
       id="rect1494-2" />
    <rect
       x="43.265606"
       y="119.22325"
       width="21.629326"
       height="14.064031"
       id="rect3865" />
    <clipPath
       clipPathUnits="userSpaceOnUse"
       id="clipPath1708-9">
      <rect
         style="fill:none;stroke:#ff0000;stroke-width:0.13;stroke-miterlimit:4;stroke-dasharray:none"
         id="rect1710-9"
         width="13.151941"
         height="16.000887"
         x="140.88275"
         y="73.673744"
         transform="skewX(0.03037613)" />
    </clipPath>
    <rect
       x="43.568115"
       y="85.89901"
       width="78.969566"
       height="27.040514"
       id="rect1720-6" />
    <rect
       x="43.568115"
       y="85.89901"
       width="78.969566"
       height="27.040514"
       id="rect3870" />
  </defs>
  <sodipodi:namedview
     inkscape:document-rotation="0"
     pagecolor="#ffffff"
     bordercolor="#666666"
     borderopacity="1"
     objecttolerance="10"
     gridtolerance="10"
     guidetolerance="10"
     inkscape:pageopacity="0"
     inkscape:pageshadow="2"
     inkscape:window-width="2560"
     inkscape:window-height="1006"
     id="namedview885"
     showgrid="false"
     fit-margin-top="0"
     fit-margin-left="0"
     fit-margin-right="0"
     fit-margin-bottom="0"
     inkscape:zoom="1.5527344"
     inkscape:cx="51.795098"
     inkscape:cy="108.54228"
     inkscape:window-x="0"
     inkscape:window-y="0"
     inkscape:window-maximized="1"
     inkscape:current-layer="text1718-2" />
  <text
     xml:space="preserve"
     id="text1478"
     style="font-style:normal;font-weight:normal;font-size:10.5833px;line-height:1.25;font-family:sans-serif;white-space:pre;shape-inside:url(#rect1480);fill:#000000;fill-opacity:1;stroke:none;"
     transform="matrix(3.7795276,0,0,3.7795276,-198.94611,-76.901861)" />
  <text
     xml:space="preserve"
     style="font-style:normal;font-weight:normal;font-size:39.9999px;line-height:1.25;font-family:sans-serif;fill:#000000;fill-opacity:1;stroke:none;stroke-width:0.999999"
     x="5.9750872"
     y="409.98593"
     id="text1486"><tspan
       sodipodi:role="line"
       id="tspan1484"
       x="5.9750872"
       y="409.98593"
       style="stroke-width:0.999999" /></text>
  <text
     xml:space="preserve"
     id="text1712"
     style="font-style:normal;font-weight:normal;font-size:10.5833px;line-height:1.25;font-family:sans-serif;white-space:pre;shape-inside:url(#rect1714);fill:#000000;fill-opacity:1;stroke:none;"
     transform="matrix(3.7795276,0,0,3.7795276,-198.94611,-76.901861)"><tspan
       style="visibility:hidden"
       x="46.564453"
       y="121.60397"><tspan>N</tspan></tspan></text>
  <g
     id="g1739"
     style="stroke-width:1;stroke-miterlimit:4;stroke-dasharray:none"
     transform="matrix(3.7795276,0,0,3.7795276,-198.94611,-76.901861)" />
  <g
     id="g1719"
     transform="translate(-6.4567251,-7.957832)">
    <path
       transform="translate(93.978426,271.69534)"
       inkscape:original-d="m 30.656799,-145.71006 c 0,4.97056 -4.02944,9 -9,9 h -30 c -1.84942,-0.0134 -3.628999,0.70559 -4.95,2 l -31.05,31.13 c -0.630742,0.63597 -1.715209,0.18569 -1.71,-0.71 v -25.42 c 0,-3.86599 -3.134007,-7 -7,-7 h -23.29 c -4.970563,0 -9,-4.02944 -9,-9 v -64.57 c 0,-4.97056 4.029437,-9 9,-9 h 98 c 4.97056,0 9,4.02944 9,9 z"
       inkscape:path-effect="#path-effect1710"
       style="fill:#ffffff;stroke:#000000;stroke-width:4.357;stroke-miterlimit:4;stroke-dasharray:none;stroke-opacity:1"
       sodipodi:nodetypes="ssccccsssssssss"
       id="path882"
       d="m 30.656799,-145.71006 c 0,4.97056 -4.02944,9 -9,9 h -30 c -1.84942,-0.0134 -3.628999,0.70559 -4.95,2 l -31.05,31.13 c -0.630742,0.63597 -1.715209,0.18569 -1.71,-0.71 v -25.42 c 0,-3.86599 -3.134007,-7 -7,-7 h -23.29 c -4.970563,0 -9,-4.02944 -9,-9 v -64.57 c 0,-4.97056 4.029437,-9 9,-9 h 98 c 4.97056,0 9,4.02944 9,9 z m 18.006402,0 c 0,4.97056 4.02944,9 9,9 h 30 c 1.84942,-0.0134 3.628999,0.70559 4.95,2 l 31.049999,31.13 c 0.63074,0.63597 1.71521,0.18569 1.71,-0.71 v -25.42 c 0,-3.86599 3.13401,-7 7,-7 h 23.29 c 4.97056,0 9,-4.02944 9,-9 v -64.57 c 0,-4.97056 -4.02944,-9 -9,-9 H 57.663201 c -4.97056,0 -9,4.02944 -9,9 z" />
    <text
       xml:space="preserve"
       id="text1492-7"
       style="font-style:normal;font-variant:normal;font-weight:normal;font-stretch:normal;font-size:10.5833px;line-height:1.25;font-family:'Ubuntu Mono derivative Powerline';-inkscape-font-specification:'Ubuntu Mono derivative Powerline';white-space:pre;shape-inside:url(#rect1494-2);fill:#000000;fill-opacity:1;stroke:none;"
       transform="matrix(3.7795276,0,0,3.7795276,-137.38465,-383.87022)"><tspan
         x="43.265625"
         y="128.5864"><tspan
           style="font-style:normal;font-variant:normal;font-weight:normal;font-stretch:normal;font-family:'Ubuntu Mono derivative Powerline';-inkscape-font-specification:'Ubuntu Mono derivative Powerline'"> </tspan></tspan></text>
    <path
       id="path1545-6"
       d="m 34.305437,75.587961 c -0.378002,0 -0.741301,0.034 -1.102529,0.10696 0.117543,-0.39738 0.237543,-0.794 0.431115,-1.15343 0.193701,-0.52022 0.495719,-0.97554 0.79553,-1.43173 0.251414,-0.49417 0.69377,-0.82749 1.019426,-1.24981 0.340724,-0.40947 0.805636,-0.68364 1.173751,-1.02482 0.361247,-0.35452 0.834482,-0.5356 1.211063,-0.78523 0.39394,-0.22942 0.736165,-0.47543 1.102522,-0.59331 0.352857,-0.14211 0.661534,-0.27137 0.914245,-0.37531 0.512447,-0.20901 0.803974,-0.33638 0.803974,-0.33638 l -0.822626,-3.28717 c 0,0 -0.370205,0.0915 -1.012653,0.24189 -0.323565,0.0782 -0.719153,0.17386 -1.168679,0.28838 -0.459549,0.0824 -0.949821,0.31295 -1.49602,0.5311 -0.539304,0.24 -1.163558,0.40539 -1.743666,0.79034 -0.583468,0.37152 -1.256908,0.67865 -1.850551,1.17407 -0.575021,0.51024 -1.268739,0.95335 -1.780985,1.60297 -0.559775,0.60696 -1.112705,1.24494 -1.541828,1.97065 -0.496812,0.69207 -0.834509,1.45209 -1.19076,2.20361 -0.322696,0.75156 -0.581465,1.51998 -0.793787,2.26591 -0.401772,1.49624 -0.581473,2.91722 -0.651319,4.13367 -0.05832,1.21795 -0.0291,2.2306 0.04101,2.96315 0.0291,0.34355 0.07306,0.68186 0.106999,0.91438 0.0291,0.18104 0.04101,0.28195 0.04101,0.28195 l 0.04101,-0.008 c 0.737817,3.44666 3.796086,6.03507 7.463241,6.03507 4.21502,0 7.632786,-3.41801 7.632786,-7.63313 0,-4.21482 -3.417766,-7.63257 -7.632786,-7.63257 z m 18.657986,0 c -0.378002,0 -0.741211,0.034 -1.10253,0.10696 0.117355,-0.39738 0.237922,-0.794 0.431082,-1.15343 0.193701,-0.52022 0.495715,-0.97554 0.795507,-1.43173 0.251414,-0.49417 0.693706,-0.82749 1.019407,-1.24981 0.340724,-0.40947 0.805708,-0.68364 1.173736,-1.02482 0.361209,-0.35452 0.834554,-0.5356 1.211127,-0.78523 0.393944,-0.22942 0.736127,-0.47543 1.102526,-0.59331 0.35297,-0.14211 0.661463,-0.27137 0.914249,-0.37531 0.512436,-0.20901 0.803973,-0.33638 0.803973,-0.33638 l -0.822637,-3.28717 c 0,0 -0.370204,0.0915 -1.012667,0.24189 -0.323566,0.0782 -0.719154,0.17386 -1.168657,0.28838 -0.459552,0.0824 -0.949889,0.31295 -1.496024,0.5311 -0.5378,0.24076 -1.163629,0.40539 -1.743673,0.79219 -0.583469,0.37153 -1.256897,0.67835 -1.850536,1.17369 -0.575018,0.51024 -1.268758,0.9529 -1.781042,1.6015 -0.559786,0.60696 -1.112652,1.24494 -1.541794,1.97065 -0.496808,0.69207 -0.834558,1.45209 -1.190744,2.20361 -0.322696,0.75156 -0.581484,1.51998 -0.793765,2.26591 -0.401772,1.49624 -0.58207,2.91722 -0.651349,4.13367 -0.05832,1.21795 -0.0291,2.2306 0.04101,2.96315 0.0291,0.34355 0.07355,0.68186 0.107527,0.91438 0.03288,0.18104 0.04101,0.28195 0.04101,0.28195 l 0.04101,-0.008 c 0.737885,3.44666 3.796075,6.03507 7.463252,6.03507 4.215012,0 7.632858,-3.41801 7.632858,-7.63313 0,-4.21482 -3.417846,-7.63257 -7.632858,-7.63257 z"
       style="stroke-width:1.6962" />
    <path
       id="path1585-1"
       d="m 107.6773,100.2738 c -0.0321,-0.18444 -0.0449,-0.285349 -0.0449,-0.285349 l -0.0449,0.0113 c -0.73598,-3.44761 -3.79359,-6.03541 -7.45995,-6.03541 -4.214114,0 -7.631154,3.41703 -7.631154,7.631159 0,4.21411 3.41704,7.63121 7.631154,7.63121 0.37815,0 0.74112,-0.0578 1.10228,-0.11036 -0.11728,0.39352 -0.23716,0.79362 -0.43071,1.15317 -0.19355,0.52237 -0.49544,0.97508 -0.79534,1.43123 -0.251262,0.49353 -0.693622,0.82757 -1.019221,1.24982 -0.340989,0.41023 -0.805466,0.68345 -1.173494,1.02429 -0.361512,0.35641 -0.834312,0.53389 -1.210802,0.78515 -0.393535,0.22564 -0.735987,0.47494 -1.102284,0.5935 -0.352516,0.14627 -0.661387,0.27099 -0.914045,0.37606 -0.51211,0.21203 -0.803803,0.33374 -0.803803,0.33374 l 0.820789,3.28815 c 0,0 0.369826,-0.0877 1.012361,-0.24416 0.323679,-0.0813 0.71907,-0.17613 1.168434,-0.28989 0.459552,-0.0847 0.949682,-0.31748 1.495695,-0.52879 0.537751,-0.24227 1.163372,-0.40377 1.74329,-0.79193 0.58326,-0.36964 1.25663,-0.67831 1.85014,-1.1735 0.57492,-0.5102 1.26848,-0.95308 1.78066,-1.6009 0.55954,-0.60695 1.11241,-1.24467 1.54145,-1.97049 0.49674,-0.69188 0.83438,-1.45164 1.19048,-2.2029 0.3224,-0.75125 0.58134,-1.51948 0.79369,-2.2656 0.40187,-1.49571 0.58133,-2.91685 0.65119,-4.13272 0.0577,-1.21758 0.0257,-2.23 -0.0449,-2.96258 -0.0257,-0.3462 -0.0711,-0.68346 -0.10704,-0.91408 z m -18.654032,0 c -0.03213,-0.18444 -0.04486,-0.285349 -0.04486,-0.285349 l -0.04486,0.0113 c -0.735991,-3.44761 -3.79353,-6.03541 -7.459895,-6.03541 -4.214113,0 -7.631218,3.41703 -7.631218,7.631159 0,4.21411 3.417105,7.63121 7.631218,7.63121 0.378153,0 0.741056,-0.0578 1.102288,-0.11036 -0.117279,0.39352 -0.237808,0.79362 -0.430711,1.15317 -0.19355,0.52237 -0.495447,0.97508 -0.795341,1.43123 -0.251263,0.49353 -0.693563,0.82757 -1.019158,1.24982 -0.340989,0.41023 -0.805534,0.68345 -1.173498,1.02429 -0.361474,0.35641 -0.834376,0.53389 -1.210862,0.78515 -0.393536,0.22564 -0.735991,0.47494 -1.102288,0.5935 -0.352516,0.14627 -0.661323,0.27099 -0.914045,0.37606 -0.510187,0.20826 -0.802072,0.33071 -0.802072,0.33071 l 0.820724,3.28815 c 0,0 0.369827,-0.0877 1.01243,-0.24415 0.323679,-0.0813 0.719006,-0.17613 1.16843,-0.28989 0.459556,-0.0847 0.949617,-0.31711 1.495699,-0.52879 0.537747,-0.24227 1.163304,-0.40377 1.743292,-0.79193 0.583252,-0.36964 1.256624,-0.67831 1.850135,-1.1735 0.574923,-0.5102 1.268481,-0.95309 1.780656,-1.60086 0.559541,-0.60699 1.112414,-1.24471 1.541462,-1.97053 0.496728,-0.69188 0.834372,-1.45164 1.190479,-2.2029 0.322394,-0.75126 0.581333,-1.51941 0.79361,-2.2656 0.40187,-1.49567 0.581976,-2.91678 0.651194,-4.13269 0.05768,-1.21761 0.0257,-2.23003 -0.04486,-2.96262 -0.0257,-0.34243 -0.07306,-0.68005 -0.108321,-0.91064 z"
       style="stroke-width:1.69582" />
    <path
       id="path1683-3"
       style="fill:#000000;stroke-width:0.858368"
       d="m 152.12603,69.071276 h -14.07726 v 24.034341 h 20 V 75.079856 Z m 4.38972,22.618021 H 139.66251 V 70.487576 h 11.5073 l 5.43606,5.43606 v 15.765661 z m -12.50302,-11.1219 c 1.35966,0 2.19998,-1.255781 2.19998,-3.144201 0,-1.8412 -0.68666,-2.95536 -2.06008,-2.95536 -1.37338,0 -2.2077,1.2558 -2.2077,3.1442 0,1.84552 0.68926,2.955361 2.0678,2.955361 z m -1.06696,-3.144201 c 0,-1.34078 0.36826,-2.10558 1.13306,-2.10558 0.55706,0 0.89698,0.4721 1.04808,1.26526 l -2.1717,1.1236 a 2.7467818,2.7467818 0 0 1 -0.01,-0.28322 z m 1.1425,2.291841 c -0.54764,0 -0.897,-0.453221 -1.04808,-1.227441 l 2.17168,-1.12362 v 0.2456 c 0,1.34334 -0.35882,2.105561 -1.1236,2.105561 z m 8.81544,0.72704 0.086,-0.878121 h -1.4163 v -5.16222 l -1.01032,0.086 v 0.6867 l -1.45406,0.1512 0.02,0.76484 1.43518,-0.038 v 3.51246 h -1.58712 v 0.879841 z m -6.7382,8.15454 0.086,-0.87812 h -1.4163 v -5.16226 l -1.01032,0.086 v 0.6867 l -1.45408,0.1512 0.02,0.76484 1.43518,-0.0376 v 3.51244 h -1.58712 v 0.87982 z m 4.67124,0.1226 c 1.35966,0 2.2,-1.2558 2.2,-3.1442 0,-1.8412 -0.68666,-2.95536 -2.06008,-2.95536 -1.37338,0 -2.20944,1.2558 -2.20944,3.1442 0.002,1.84376 0.69098,2.95794 2.06952,2.95794 z m -1.06694,-3.1416 c 0,-1.34078 0.36822,-2.1056 1.13306,-2.1056 0.55706,0 0.897,0.4721 1.04804,1.26524 l -2.17166,1.1236 a 2.7467818,2.7467818 0 0 1 -0.01,-0.28322 z m 1.1425,2.29182 c -0.54766,0 -0.897,-0.45322 -1.04808,-1.22746 l 2.17168,-1.1236 v 0.24558 c 0,1.34334 -0.3588,2.10558 -1.1236,2.10558 z"
       clip-path="url(#clipPath1708-9)"
       transform="matrix(4.4973778,0,0,4.4973778,-463.4482,-273.20235)" />
  </g>
  <g
     style="font-style:normal;font-weight:normal;font-size:9.87778px;line-height:1.25;font-family:sans-serif;white-space:pre;shape-inside:url(#rect1720-6);fill:#000000;fill-opacity:1;stroke:none"
     id="text1718-2"
     transform="matrix(3.8139412,0,0,3.8139412,-168.97688,-332.66488)"
     aria-label="NLPortuguês">
    <path
       id="path973"
       style="font-style:normal;font-variant:normal;font-weight:bold;font-stretch:normal;font-size:9.87778px;font-family:Comfortaa;-inkscape-font-specification:Comfortaa;fill:#ffffff"
       d="m 45.059904,94.937935 q -0.217311,0 -0.365478,-0.138289 -0.138289,-0.148167 -0.138289,-0.375356 v -6.687257 q 0,-0.227189 0.138289,-0.365477 0.148167,-0.148167 0.365478,-0.148167 0.108656,0 0.217311,0.05927 0.108656,0.04939 0.1778,0.128411 l 4.306712,5.729112 v -5.403146 q 0,-0.227189 0.148167,-0.365477 0.148167,-0.148167 0.365478,-0.148167 0.217311,0 0.3556,0.148167 0.148167,0.138288 0.148167,0.365477 v 6.687257 q 0,0.227189 -0.148167,0.375356 -0.138289,0.138289 -0.3556,0.138289 -0.108656,0 -0.227189,-0.03951 -0.108656,-0.04939 -0.167922,-0.138289 l -4.306712,-5.729112 v 5.393267 q 0,0.217312 -0.148167,0.365478 -0.138289,0.148167 -0.365478,0.148167 z" />
    <path
       id="path975"
       style="font-style:normal;font-variant:normal;font-weight:bold;font-stretch:normal;font-size:9.87778px;font-family:Comfortaa;-inkscape-font-specification:Comfortaa;fill:#ffffff"
       d="m 53.258461,94.937935 q -0.217311,0 -0.365478,-0.148167 -0.138289,-0.148166 -0.138289,-0.365478 v -6.687257 q 0,-0.217311 0.148167,-0.365477 0.148167,-0.148167 0.3556,-0.148167 0.217311,0 0.365478,0.148167 0.148167,0.148166 0.148167,0.365477 v 6.173613 h 3.575756 q 0.217311,0 0.365478,0.148167 0.148167,0.148166 0.148167,0.365477 0,0.217312 -0.148167,0.365478 -0.148167,0.148167 -0.365478,0.148167 z" />
    <path
       id="path977"
       style="font-style:normal;font-variant:normal;font-weight:bold;font-stretch:normal;font-size:9.87778px;font-family:Comfortaa;-inkscape-font-specification:Comfortaa;fill:#ffffff"
       d="m 59.609857,94.937935 q -0.217311,0 -0.365478,-0.148167 -0.148166,-0.148166 -0.148166,-0.365478 v -6.687257 q 0,-0.227189 0.148166,-0.365477 0.148167,-0.148167 0.365478,-0.148167 h 1.975556 q 0.730956,0 1.303867,0.325967 0.582789,0.325966 0.898878,0.908755 0.325967,0.582789 0.325967,1.323623 0,0.721078 -0.325967,1.284111 -0.316089,0.563034 -0.898878,0.879123 -0.572911,0.316089 -1.303867,0.316089 h -1.461911 v 2.163233 q 0,0.217312 -0.148167,0.365478 -0.138289,0.148167 -0.365478,0.148167 z m 1.975556,-3.625145 q 0.671689,0 1.106312,-0.424745 0.434622,-0.434622 0.434622,-1.106311 0,-0.701323 -0.434622,-1.1557 -0.434623,-0.454378 -1.106312,-0.454378 h -1.461911 v 3.141134 z" />
    <path
       id="path979"
       style="font-style:normal;font-variant:normal;font-weight:bold;font-stretch:normal;font-size:9.87778px;font-family:Comfortaa;-inkscape-font-specification:Comfortaa;fill:#ffffff"
       d="m 67.403414,94.977446 q -0.790223,0 -1.412523,-0.345722 -0.6223,-0.3556 -0.968022,-0.9779 -0.345723,-0.622301 -0.345723,-1.412523 0,-0.8001 0.345723,-1.4224 0.345722,-0.6223 0.968022,-0.968023 0.6223,-0.3556 1.412523,-0.3556 0.780344,0 1.392767,0.3556 0.6223,0.345723 0.968022,0.968023 0.3556,0.6223 0.3556,1.4224 0,0.790222 -0.345722,1.412523 -0.345723,0.6223 -0.968023,0.9779 -0.612422,0.345722 -1.402644,0.345722 z m 0,-0.889 q 0.503766,0 0.898878,-0.237067 0.404989,-0.237067 0.6223,-0.651933 0.227189,-0.424745 0.227189,-0.958145 0,-0.5334 -0.227189,-0.958145 -0.217311,-0.424744 -0.6223,-0.661811 -0.395112,-0.237067 -0.898878,-0.237067 -0.503767,0 -0.908756,0.237067 -0.395111,0.237067 -0.6223,0.661811 -0.227189,0.424745 -0.227189,0.958145 0,0.5334 0.227189,0.958145 0.227189,0.414866 0.6223,0.651933 0.404989,0.237067 0.908756,0.237067 z" />
    <path
       id="path981"
       style="font-style:normal;font-variant:normal;font-weight:bold;font-stretch:normal;font-size:9.87778px;font-family:Comfortaa;-inkscape-font-specification:Comfortaa;fill:#ffffff"
       d="m 74.268461,89.475523 q 0.523522,0 0.819856,0.158044 0.296333,0.158045 0.296333,0.395111 0,0.06915 -0.0099,0.09878 -0.0889,0.316089 -0.395111,0.316089 -0.04939,0 -0.148166,-0.01976 -0.395112,-0.06914 -0.642056,-0.06914 -0.7112,0 -1.145823,0.325967 -0.434622,0.325967 -0.434622,0.879122 v 2.884312 q 0,0.237067 -0.128411,0.365478 -0.118533,0.128411 -0.365478,0.128411 -0.237067,0 -0.365478,-0.118533 -0.128411,-0.128411 -0.128411,-0.375356 v -4.415368 q 0,-0.237066 0.128411,-0.365477 0.128411,-0.128412 0.365478,-0.128412 0.493889,0 0.493889,0.493889 v 0.187678 q 0.296333,-0.345722 0.730956,-0.543278 0.434622,-0.197555 0.928511,-0.197555 z" />
    <path
       id="path983"
       style="font-style:normal;font-variant:normal;font-weight:bold;font-stretch:normal;font-size:9.87778px;font-family:Comfortaa;-inkscape-font-specification:Comfortaa;fill:#ffffff"
       d="m 78.723322,93.950157 q 0.1778,0 0.296333,0.138289 0.128411,0.138289 0.128411,0.3556 0,0.217311 -0.167922,0.3556 -0.158045,0.138289 -0.414867,0.138289 h -0.1778 q -0.484011,0 -0.889,-0.246944 -0.395111,-0.256823 -0.6223,-0.691445 -0.227189,-0.434622 -0.227189,-0.9779 V 90.581834 H 76.19461 q -0.207433,0 -0.335844,-0.118533 -0.128412,-0.118534 -0.128412,-0.296334 0,-0.197555 0.128412,-0.316089 0.128411,-0.118533 0.335844,-0.118533 h 0.454378 v -1.4224 q 0,-0.217311 0.138289,-0.3556 0.138289,-0.138289 0.3556,-0.138289 0.217311,0 0.3556,0.138289 0.138289,0.138289 0.138289,0.3556 v 1.4224 h 0.839611 q 0.207434,0 0.335845,0.118533 0.128411,0.118534 0.128411,0.316089 0,0.1778 -0.128411,0.296334 -0.128411,0.118533 -0.335845,0.118533 h -0.839611 v 2.439812 q 0,0.395111 0.217311,0.661811 0.217311,0.2667 0.5334,0.2667 z" />
    <path
       id="path985"
       style="font-style:normal;font-variant:normal;font-weight:bold;font-stretch:normal;font-size:9.87778px;font-family:Comfortaa;-inkscape-font-specification:Comfortaa;fill:#ffffff"
       d="m 84.837661,89.524912 q 0.227189,0 0.365478,0.138289 0.138289,0.138288 0.138289,0.365477 v 4.40549 q 0,0.217311 -0.138289,0.365478 -0.138289,0.138289 -0.365478,0.138289 -0.217311,0 -0.365478,-0.138289 -0.138289,-0.148167 -0.138289,-0.365478 v -0.108655 q -0.316089,0.316089 -0.750711,0.493889 -0.434622,0.167922 -0.928511,0.167922 -0.681567,0 -1.224845,-0.296333 -0.543278,-0.296334 -0.849489,-0.859367 -0.306211,-0.572912 -0.306211,-1.373012 v -2.429934 q 0,-0.217311 0.138289,-0.3556 0.148166,-0.148166 0.365477,-0.148166 0.217312,0 0.355601,0.148166 0.148166,0.138289 0.148166,0.3556 v 2.429934 q 0,0.8001 0.424745,1.214967 0.434622,0.404989 1.145822,0.404989 0.414867,0 0.750712,-0.167922 0.345722,-0.167922 0.5334,-0.454378 0.197555,-0.286456 0.197555,-0.642056 v -2.785534 q 0,-0.227189 0.138289,-0.365477 0.148167,-0.138289 0.365478,-0.138289 z" />
    <path
       id="path987"
       style="font-style:normal;font-variant:normal;font-weight:bold;font-stretch:normal;font-size:9.87778px;font-family:Comfortaa;-inkscape-font-specification:Comfortaa;fill:#ffffff"
       d="m 89.569109,89.495278 q 0.780344,0 1.392767,0.3556 0.6223,0.345723 0.968022,0.968023 0.3556,0.6223 0.3556,1.4224 v 2.133601 q 0,0.780344 -0.345722,1.4224 -0.345722,0.642056 -0.9779,1.007533 -0.6223,0.375356 -1.412523,0.375356 -0.7112,0 -1.323622,-0.286456 -0.612423,-0.276577 -1.027289,-0.8001 -0.108656,-0.138289 -0.108656,-0.276578 0,-0.207433 0.207433,-0.3556 0.138289,-0.0889 0.276578,-0.0889 0.246945,0 0.404989,0.207434 0.2667,0.345722 0.671689,0.523522 0.404989,0.187678 0.918634,0.187678 0.484011,0 0.879122,-0.237067 0.395111,-0.227189 0.632178,-0.681567 0.237067,-0.4445 0.237067,-1.0668 v -0.484011 q -0.306211,0.543278 -0.809978,0.849489 -0.503767,0.306211 -1.135945,0.306211 -0.730956,0 -1.313745,-0.345722 -0.572911,-0.3556 -0.898878,-0.9779 -0.316088,-0.622301 -0.316088,-1.412523 0,-0.8001 0.345722,-1.4224 0.345722,-0.6223 0.968022,-0.968023 0.6223,-0.3556 1.412523,-0.3556 z m 0,4.593168 q 0.503767,0 0.898878,-0.237067 0.404989,-0.237067 0.6223,-0.651933 0.227189,-0.424745 0.227189,-0.958145 0,-0.5334 -0.227189,-0.958145 -0.217311,-0.424744 -0.6223,-0.661811 -0.395111,-0.237067 -0.898878,-0.237067 -0.503767,0 -0.908756,0.237067 -0.395111,0.237067 -0.6223,0.661811 -0.227189,0.424745 -0.227189,0.958145 0,0.5334 0.227189,0.958145 0.227189,0.414866 0.6223,0.651933 0.404989,0.237067 0.908756,0.237067 z" />
    <path
       id="path989"
       style="font-style:normal;font-variant:normal;font-weight:bold;font-stretch:normal;font-size:9.87778px;font-family:Comfortaa;-inkscape-font-specification:Comfortaa;fill:#ffffff"
       d="m 98.24179,89.524912 q 0.227189,0 0.365478,0.138289 0.138289,0.138288 0.138289,0.365477 v 4.40549 q 0,0.217311 -0.138289,0.365478 -0.138289,0.138289 -0.365478,0.138289 -0.217311,0 -0.365478,-0.138289 -0.138289,-0.148167 -0.138289,-0.365478 v -0.108655 q -0.316089,0.316089 -0.750711,0.493889 -0.434622,0.167922 -0.928511,0.167922 -0.681567,0 -1.224845,-0.296333 -0.543278,-0.296334 -0.849489,-0.859367 -0.306211,-0.572912 -0.306211,-1.373012 v -2.429934 q 0,-0.217311 0.138289,-0.3556 0.148166,-0.148166 0.365477,-0.148166 0.217312,0 0.355601,0.148166 0.148166,0.138289 0.148166,0.3556 v 2.429934 q 0,0.8001 0.424745,1.214967 0.434622,0.404989 1.145822,0.404989 0.414867,0 0.750712,-0.167922 0.345722,-0.167922 0.5334,-0.454378 0.197555,-0.286456 0.197555,-0.642056 v -2.785534 q 0,-0.227189 0.138289,-0.365477 0.148167,-0.138289 0.365478,-0.138289 z" />
    <path
       id="path991"
       style="font-style:normal;font-variant:normal;font-weight:bold;font-stretch:normal;font-size:9.87778px;font-family:Comfortaa;-inkscape-font-specification:Comfortaa;fill:#ffffff"
       d="m 105.37354,92.152401 q 0,0.187678 -0.12841,0.316089 -0.12841,0.118533 -0.32597,0.118533 h -3.75355 q 0.10865,0.691445 0.6223,1.11619 0.52352,0.424744 1.27423,0.424744 0.29634,0 0.61242,-0.108656 0.32597,-0.108655 0.5334,-0.2667 0.13829,-0.108655 0.32597,-0.108655 0.18768,0 0.29633,0.09878 0.1778,0.148166 0.1778,0.335844 0,0.1778 -0.15804,0.296334 -0.33584,0.2667 -0.83961,0.434622 -0.49389,0.167922 -0.94827,0.167922 -0.80998,0 -1.45203,-0.345722 -0.64206,-0.3556 -1.00754,-0.9779 -0.3556,-0.622301 -0.3556,-1.412523 0,-0.790222 0.33585,-1.412522 0.34572,-0.632178 0.94827,-0.977901 0.61242,-0.3556 1.38288,-0.3556 0.76059,0 1.31375,0.335845 0.55316,0.335844 0.84949,0.938389 0.29633,0.602544 0.29633,1.382889 z m -2.45957,-1.807634 q -0.72107,0 -1.17545,0.395112 -0.4445,0.395111 -0.56303,1.056922 h 3.2893 q -0.0889,-0.661811 -0.49389,-1.056922 -0.40499,-0.395112 -1.05693,-0.395112 z M 101.71876,88.8631 q -0.21731,0 -0.36547,-0.108655 -0.13829,-0.118534 -0.13829,-0.296334 0,-0.256822 0.23706,-0.434622 l 1.10631,-0.721078 q 0.12842,-0.07902 0.25683,-0.07902 0.14816,0 0.2667,0.07902 l 1.09643,0.721078 q 0.23707,0.1778 0.23707,0.434622 0,0.1778 -0.13829,0.296334 -0.13829,0.108655 -0.3556,0.108655 -0.1778,0 -0.32597,-0.108655 l -0.78034,-0.553156 -0.78035,0.553156 q -0.13829,0.108655 -0.31609,0.108655 z" />
    <path
       id="path993"
       style="font-style:normal;font-variant:normal;font-weight:bold;font-stretch:normal;font-size:9.87778px;font-family:Comfortaa;-inkscape-font-specification:Comfortaa;fill:#ffffff"
       d="m 108.62331,94.977446 q -0.67169,0 -1.26435,-0.207433 -0.59267,-0.207434 -0.92851,-0.543278 -0.12842,-0.128411 -0.12842,-0.306211 0,-0.237067 0.19756,-0.385234 0.18768,-0.138289 0.34572,-0.138289 0.19756,0 0.37536,0.1778 0.18768,0.207434 0.56303,0.365478 0.37536,0.148167 0.8001,0.148167 0.56304,0 0.86925,-0.187678 0.31609,-0.187678 0.31609,-0.503767 0,-0.306211 -0.30622,-0.503766 -0.30621,-0.207434 -1.03716,-0.345723 -1.89654,-0.365478 -1.89654,-1.560689 0,-0.484011 0.28646,-0.819856 0.28646,-0.335844 0.75071,-0.503766 0.46426,-0.167923 0.98778,-0.167923 0.64205,0 1.14582,0.207434 0.51365,0.207433 0.80998,0.572911 0.12841,0.158044 0.12841,0.316089 0,0.167922 -0.16792,0.306211 -0.10866,0.07902 -0.27658,0.07902 -0.25682,0 -0.46426,-0.187678 -0.24694,-0.227189 -0.52352,-0.316089 -0.27658,-0.09878 -0.67169,-0.09878 -0.45437,0 -0.75071,0.158044 -0.28645,0.148167 -0.28645,0.424745 0,0.197555 0.0988,0.335844 0.0988,0.128411 0.37536,0.246945 0.27658,0.108655 0.8001,0.217311 1.07668,0.217311 1.52118,0.602544 0.45438,0.385234 0.45438,0.997656 0,0.454378 -0.24695,0.829734 -0.24694,0.365478 -0.73095,0.582789 -0.47414,0.207433 -1.14583,0.207433 z" />
  </g>
</svg>
